<?xml version="1.0" encoding="UTF-8"?><svg id="Layer_1" xmlns="http://www.w3.org/2000/svg" viewBox="0 0 336.69 162.28"><path d="M235.97,60.99L277.46,0h-34.48l-25.84,40.63L191.47,0h-35.38l41.3,60.99-24.44,36.22h-41.11V0h-29.48V118.88l-26.2-38.24c14.97-6.47,23.15-19.93,23.15-38.33C99.31,15.42,82.37,0,52.83,0H0V124.88H29.48v-40.08h16.54l25.21,40.08h117.33l27.83-43.71,27.49,43.71h35.39l-43.29-63.89Zm-182.78-4.04H29.48V27.85h23.71c11.38,0,16.46,4.46,16.46,14.46s-5.23,14.64-16.46,14.64Z" style="fill:#fff;"/><g style="opacity:.35;"><path d="M301.38,25.64c-5.58,0-10.84,1.33-15.54,3.64l29.09,40.96-18.18,25.69c1.52,.2,3.06,.34,4.63,.34,19.5,0,35.31-15.81,35.31-35.31s-15.81-35.31-35.31-35.31Z" style="fill:#a8a9ad;"/><path d="M280.95,32.18c-9,6.4-14.89,16.89-14.89,28.77,0,15.79,10.37,29.15,24.66,33.67l17.25-24.38-27.03-38.06Z" style="fill:#a8a9ad;"/></g><g><path d="M5.77,149.9H14.1v3.39H5.77v5.59H14.99v3.39H2.2v-20.83H14.82v3.39H5.77v5.06Z" style="fill:#fff;"/><path d="M18.45,141.45h3.57v17.44h8.87v3.39h-12.44v-20.83Z" style="fill:#fff;"/><path d="M36.9,149.9h8.33v3.39h-8.33v5.59h9.22v3.39h-12.79v-20.83h12.62v3.39h-9.05v5.06Z" style="fill:#fff;"/><path d="M64.57,156.74l2.38,2.35s-2.74,3.54-8,3.54c-6.01,0-10.56-4.61-10.56-10.77s4.55-10.77,10.56-10.77c5,0,7.71,3.27,7.71,3.27l-2.41,2.35s-1.87-2.29-5.3-2.29c-4.11,0-6.93,3.42-6.93,7.44s2.83,7.44,6.93,7.44c3.66,0,5.62-2.56,5.62-2.56Z" style="fill:#fff;"/><path d="M73.65,144.84h-5.74v-3.39h15.06v3.39h-5.74v17.44h-3.57v-17.44Z" style="fill:#fff;"/><path d="M85.58,141.45h6.84c4.14,0,6.9,2.68,6.9,6.49,0,3.12-1.67,5.5-4.64,6.25l5.21,8.09h-4.17l-4.94-7.85h-1.64v7.85h-3.57v-20.83Zm10.12,6.49c0-2.05-1.43-3.09-3.72-3.09h-2.83v6.19h2.83c2.29,0,3.72-1.04,3.72-3.09Z" style="fill:#fff;"/><path d="M122.81,151.86c0,6.16-4.46,10.77-10.53,10.77s-10.53-4.61-10.53-10.77,4.46-10.77,10.53-10.77,10.53,4.61,10.53,10.77Zm-3.63,0c0-4.02-2.71-7.38-6.9-7.38s-6.9,3.36-6.9,7.38,2.71,7.38,6.9,7.38,6.9-3.36,6.9-7.38Z" style="fill:#fff;"/><path d="M126.02,141.45h3.57v17.44h8.87v3.39h-12.44v-20.83Z" style="fill:#fff;"/><path d="M147.48,162.28h-3.57v-8.21l-7.11-12.62h3.93l5.09,9.31,5.09-9.31h3.69l-7.11,12.62v8.21Z" style="fill:#fff;"/><path d="M163.64,153.59c-3.06-1.07-6.52-2.74-6.52-6.61,0-2.95,2.62-5.89,6.81-5.89s6.78,3.3,6.78,3.3l-2.47,2.44s-1.73-2.35-4.31-2.35c-1.79,0-3.18,1.1-3.18,2.5,0,1.82,1.64,2.38,4.49,3.45,3.18,1.19,5.83,2.62,5.83,6.4s-3.33,5.8-7.26,5.8c-5.21,0-7.62-4.25-7.62-4.25l2.68-2.26s1.79,3.12,4.94,3.12c1.79,0,3.63-.71,3.63-2.41s-1.34-2.38-3.81-3.24Z" style="fill:#fff;"/><path d="M175.16,141.45h3.57v20.83h-3.57v-20.83Z" style="fill:#fff;"/><path d="M190.15,153.59c-3.06-1.07-6.52-2.74-6.52-6.61,0-2.95,2.62-5.89,6.81-5.89s6.78,3.3,6.78,3.3l-2.47,2.44s-1.73-2.35-4.31-2.35c-1.79,0-3.18,1.1-3.18,2.5,0,1.82,1.64,2.38,4.49,3.45,3.18,1.19,5.83,2.62,5.83,6.4s-3.33,5.8-7.26,5.8c-5.21,0-7.62-4.25-7.62-4.25l2.68-2.26s1.79,3.12,4.94,3.12c1.79,0,3.63-.71,3.63-2.41s-1.34-2.38-3.81-3.24Z" style="fill:#fff;"/><path d="M213.22,141.45l10.41,14.34v-14.34h3.57v20.83h-3.21l-10.41-14.31v14.31h-3.57v-20.83h3.21Z" style="fill:#fff;"/><path d="M235.18,149.9h8.33v3.39h-8.33v5.59h9.22v3.39h-12.79v-20.83h12.62v3.39h-9.05v5.06Z" style="fill:#fff;"/><path d="M251.43,149.9h8.33v3.39h-8.33v5.59h9.22v3.39h-12.79v-20.83h12.62v3.39h-9.05v5.06Z" style="fill:#fff;"/><path d="M281.12,151.86c0,6.01-4.22,10.41-10.29,10.41h-6.72v-20.83h6.72c6.07,0,10.29,4.4,10.29,10.41Zm-3.63,0c0-3.81-2.56-7.02-6.61-7.02h-3.21v14.04h3.21c4.05,0,6.61-3.24,6.61-7.02Z" style="fill:#fff;"/><path d="M284.34,141.45h3.57v17.44h8.87v3.39h-12.44v-20.83Z" style="fill:#fff;"/><path d="M302.79,149.9h8.33v3.39h-8.33v5.59h9.22v3.39h-12.79v-20.83h12.62v3.39h-9.04v5.06Z" style="fill:#fff;"/><path d="M322.07,153.59c-3.07-1.07-6.52-2.74-6.52-6.61,0-2.95,2.62-5.89,6.81-5.89s6.78,3.3,6.78,3.3l-2.47,2.44s-1.73-2.35-4.31-2.35c-1.79,0-3.18,1.1-3.18,2.5,0,1.82,1.64,2.38,4.49,3.45,3.18,1.19,5.83,2.62,5.83,6.4s-3.33,5.8-7.26,5.8c-5.21,0-7.62-4.25-7.62-4.25l2.68-2.26s1.79,3.12,4.94,3.12c1.79,0,3.63-.71,3.63-2.41s-1.34-2.38-3.81-3.24Z" style="fill:#fff;"/></g></svg>