<?xml version="1.0" encoding="UTF-8"?><svg id="Layer_1" xmlns="http://www.w3.org/2000/svg" viewBox="0 0 728.99 728.99"><path d="M528.38,357.02c37.83,136.14,51.75,173.34,27.58,213.11-37.71,62.04-129.45,66.69-136.58,66.95-56.11,2.09-98.18-23.05-129.37-41.68-32.67-19.52-50.72-37.91-87.55-74.81C61.16,378.97,54.32,376.43,51.63,357.02c-12.16-87.88,109.72-169.2,154.85-199.31,55.26-36.87,154.29-102.94,226.29-66.95,35.99,17.99,34.43,46.09,95.61,266.26Z" style="fill:#a8a9ad; opacity:.15;"/><path d="M378.22,381.18c-4.59,6.85-10.11,12.94-16.51,17.85-14.76,11.31-33.52,18.77-43,34.77-8.38,14.15-7.47,31.67-7.28,48.12,.49,42.46-5.57,85-17.9,125.63" style="fill:none; stroke:#010101; stroke-miterlimit:10; stroke-width:1.34px;"/><path d="M367.18,273.73c2.03,.93,4.33,2.15,6.71,3.73" style="fill:none; stroke:#010101; stroke-miterlimit:10; stroke-width:1.34px;"/><path d="M9.85,420.09c48.8-72.46,114-133.8,189.3-178.08,12.65-7.44,25.67-14.44,39.6-19.09,33.97-11.33,72.7-7.52,103.81,10.21,9.92,5.66,16.56,10.54,20.71,18.29,7.84,14.65,3.36,30.55,1.63,35.81" style="fill:none; stroke:#010101; stroke-miterlimit:10; stroke-width:1.34px;"/><path d="M32.45,459.28c32.45-9.83,69.01-23.28,107.84-41.91,57.67-27.67,104.18-59.01,139.91-87.05" style="fill:none; stroke:#010101; stroke-miterlimit:10; stroke-width:1.34px;"/><path d="M319.07,666.66c2.22-2.71,4.26-5.56,6.05-8.59,3.7-6.28,10.01-19.52,5.25-31.54-5.03-12.69-21.39-20.66-40.36-19.63" style="fill:none; stroke:#010101; stroke-miterlimit:10; stroke-width:1.34px;"/><path d="M213.88,376.88c-4.5,36.65-5.45,66.62-5.51,86.96-.24,78.84,12.59,117.53-5.67,173.07-6.93,21.09-15.9,37.16-22.09,47.08" style="fill:none; stroke:#010101; stroke-miterlimit:10; stroke-width:1.34px;"/><path d="M243.41,364.22c-.75-.26-1.32-2.4,7.84-38.22,2.89-11.29,4.58-17.33,10.09-22.29,3.51-3.17,8.09-5.05,11.36-8.47,3.16-3.29,5.64-8.23,10.19-8.49,3.58-.2,6.58,2.87,8.02,6.16,1.44,3.29,1.85,6.95,3.3,10.24,2.87,6.54,9.59,11.21,10.96,18.22,2.04,10.47-8.76,19.31-9.76,29.94-6.99-6.31-15.52-13.04-24.76-11.22-4.16,.82-7.13,3.03-10.51,5.53-11.88,8.81-14.9,19.26-16.72,18.61Z" style="fill:#a8a9ad; stroke:#010101; stroke-miterlimit:10; stroke-width:1.34px;"/><path d="M246.6,360.71c.9,8.86,2.62,17.64,5.15,26.19,1.99,6.73,4.52,13.39,8.52,19.16,4,5.77,9.61,10.62,16.31,12.7,3.28,1.02,6.74,1.36,10.18,1.36,15.08,.03,29.4-6.18,43-12.7,21.35-10.24,42.79-22,57.74-40.36" style="fill:none; stroke:#010101; stroke-miterlimit:10; stroke-width:1.34px;"/><path d="M286.54,357.02c14.58-5.66,28.07-14.12,39.53-24.77" style="fill:none; stroke:#010101; stroke-miterlimit:10; stroke-width:1.34px;"/><path d="M375.68,379.55c8.3,5.97,17.2,11.1,26.53,15.29,4.61,2.07,9.96,3.91,14.57,1.85,.65-.29,1.29-.69,1.62-1.32,.31-.61,.26-1.34,.13-2.02-.78-4.06-4.07-7.09-7.23-9.75-26.18-22.1-55.66-40.32-87.63-53.17,21.56-22.29,43.13-44.59,63.59-67.9,8.58-9.77,17.05-19.8,27.47-27.56,10.42-7.76,23.19-13.17,36.15-12.25" style="fill:none; stroke:#010101; stroke-miterlimit:10; stroke-width:1.34px;"/><path d="M417.14,396.65c23.62-19.46,45.81-40.65,66.35-63.34" style="fill:none; stroke:#010101; stroke-miterlimit:10; stroke-width:1.34px;"/><path d="M435.55,224.87c13.85-21.12,36.51-34.52,58.38-47.17,3.66-2.12,7.46-4.28,11.67-4.7,4.21-.42,8.95,1.42,10.56,5.33" style="fill:none; stroke:#010101; stroke-miterlimit:10; stroke-width:1.34px;"/><path d="M462.84,217.05c14.23-13.99,33.64-21.12,52.43-27.85" style="fill:none; stroke:#010101; stroke-miterlimit:10; stroke-width:1.34px;"/><path d="M503.08,171.9c-3.2-6.58-6.48-13.97-4.31-20.96,1.78-5.75,6.93-9.91,9-15.57,3.91-10.71-4.3-22.08-4.13-33.48,.02-1.26,.16-2.58,.87-3.63,1.18-1.74,3.69-2.19,5.67-1.49s3.52,2.28,4.78,3.97c5.55,7.45,6.83,17.22,7,26.51,.36,19.07-3.1,37.98-6.18,56.81-.97,5.96-1.9,12.13-.4,17.98,1.52,5.9,5.36,10.89,9.38,15.46,12.59,14.31,27.87,26.32,38.79,41.94-4.68-8.06-6.43-17.46-7.48-26.72-2.34-20.73-1.52-41.81,2.42-62.29,1.37-7.11,3.12-14.2,3.31-21.44,.15-5.51-.61-11.01-1.75-16.4-2.74-13.03-7.92-25.91-17.2-35.45-9.29-9.54-23.19-15.23-36.19-12.33" style="fill:none; stroke:#010101; stroke-miterlimit:10; stroke-width:1.34px;"/><path d="M380.55,154.61c.3-6.22-2.67-12.07-5.13-17.79-6.88-15.99-10.29-33.74-7.82-50.97,2.47-17.23,11.19-33.85,25.19-44.18,4.7-3.47,9.91-6.2,15.17-8.73,11.73-5.64,24.36-10.47,37.36-9.91,15.7,.68,30.3,9.35,40.81,21.04,10.5,11.69,17.34,26.21,22.75,40.97" style="fill:none; stroke:#010101; stroke-miterlimit:10; stroke-width:1.34px;"/><path d="M375.47,156.97c1.3,14.65,7.29,29.1,17.86,39.33,10.57,10.23,25.87,15.82,40.37,13.39,2.47-.41,5.31-1.43,5.94-3.85,.25-.96,.09-1.98-.08-2.96-1.71-9.74-4.09-19.36-7.13-28.77-5.2,5.1-14.39,2.99-19.62-2.09-5.23-5.08-7.81-12.2-11.34-18.58-1.26-2.28-2.98-4.71-5.56-5.08-1.71-.25-3.4,.5-4.97,1.22-5.49,2.53-10.99,5.06-15.47,7.39Z" style="fill:none; stroke:#010101; stroke-miterlimit:10; stroke-width:1.34px;"/><path d="M440.16,206.94c2.29,1.78,3.86,4.45,4.3,7.31" style="fill:none; stroke:#010101; stroke-miterlimit:10; stroke-width:1.34px;"/><path d="M555.12,209.43c13.1,27.52,24.47,56.24,28.76,86.41,3.88,27.32,1.86,55.21,5.62,82.54,6.76,49.22,31.82,94.23,41.07,143.04,2.74,14.48,4.06,29.42,1.58,43.94-5.5,32.09-29.24,58.7-57.14,75.47-27.91,16.77-59.91,25.16-91.42,33.35" style="fill:none; stroke:#010101; stroke-miterlimit:10; stroke-width:1.34px;"/><path d="M402.21,394.84c4.69,21.43,8.78,46.33,10.93,74.15,2.16,27.87,1.95,53.13,.61,75.05" style="fill:none; stroke:#010101; stroke-miterlimit:10; stroke-width:1.34px;"/><path d="M397.15,148.42c10.49-11.17,20.27-23.01,29.26-35.43" style="fill:none; stroke:#010101; stroke-miterlimit:10; stroke-width:1.34px;"/><path d="M432.36,175.17c4.05-10.06,8.64-19.9,13.76-29.46" style="fill:none; stroke:#010101; stroke-miterlimit:10; stroke-width:1.34px;"/><path d="M293.67,297.23c14.72-5.5,29.45-11,44.17-16.5,1.91-.71,4.15-1.4,5.89-.34,2.12,1.3,2.11,4.6,.63,6.6-1.48,2-3.91,3.01-6.22,3.93-13.51,5.39-27.01,10.79-40.52,16.18-2.15-2.93-3.56-6.39-4.08-9.98,.53-.39,1.27-.46,.14,.11Z" style="fill:#fff; stroke:#010101; stroke-miterlimit:10; stroke-width:1.34px;"/><path d="M580.03,204.6c6.93-1.68,13.85-3.36,20.78-5.04,28.69,115.08,57.38,230.15,86.07,345.23-7.28,1.23-14.56,2.46-21.83,3.69" style="fill:none; stroke:#3f4b9b; stroke-miterlimit:10; stroke-width:4.46px;"/><path d="M244.63,404.97c-5.76-.01-11.51-.02-17.27-.04,0-31.95,0-63.91,0-95.86,5.94,.15,11.89,.31,17.83,.46" style="fill:none; stroke:#3f4b9b; stroke-miterlimit:10; stroke-width:2.08px;"/></svg>