<?xml version="1.0" encoding="UTF-8"?><svg id="Layer_1" xmlns="http://www.w3.org/2000/svg" viewBox="0 0 728.99 728.99"><path d="M35.65,347.85c3.85-1.39,7.66-2.93,11.69-3.53,1.31-.19,2.69-.18,4.03-.37,6.4-.93,10.3-.92,10.79-.97,9.6-.82,51.66,7.21,71.28,16.53,0,0,5.85,2.78,15.26,4.1,1.38,.19,3.32,.31,5.71-.1,4.28-.74,9.86-3.27,10.07-6.57,.05-.74-.19-1.25-.43-1.84-1.81-4.49-1.82-8.84-1.84-11.86-.02-4.87,1.21-8.53,1.98-10.7,.77-2.17,1.72-4.82,3.44-6.35,1.6-1.42,2.95-2.3,4.71-3.2,4.03-2.06,7.5-2.46,8.36-2.54,2.44-.24,2.61,.19,5.57,.15,4.8-.07,8.48-1.12,10.82-1.8,4.28-1.25,7.49-2.73,9.34-3.87,2.84-1.76,5.36-3.79,8.58-4.89,2.94-1.01,7.26-1.37,10.32-.4,3.53,1.13,5.2,5.05,8.07,6.79,2.78,1.69,6.82,1.71,9.96,1.52,4.19-.25,8.4-.28,12.62,.25,0,0,6.08,.26,12.65,1.58,11.26,2.26,28.58,11.49,35.01,27.97,2.52,6.48,3.11,12.86,3.03,15.4-.15,4.87,.14,10.25-1.42,14.94-.66,1.97-2.45,7.47-7.04,13-7.19,8.68-16.49,11.93-26.15,15.3-2.42,.84-4.29,1.34-5.74,1.66-3.88,.88-7.8,1.27-11.89,1.25-5.76-.02-11.52-.42-17.31-.18-3.98,.16-7.83,.27-11.71,1.13-2.77,.61-6.04,.36-5.95,3.96,.04,1.61,.52,3.47,.83,5.09,.38,1.98,.78,2.93,.86,3.16,2.03,5.92,16.1,8.93,18.43,9.42,1.03,.22,4.97,1.03,10.43,1.39,4.19,.27,7.71,.18,14.47-.34,11.95-.91,18.37-1.4,27.28-2.96,4.44-.78,7.16-1.41,11.98-1.75,2.4-.17,6.82-.37,12.35,.05,3.25,.25,6.05,.64,8.26,1.03" style="fill:none; stroke:#010101; stroke-miterlimit:10; stroke-width:1.15px;"/><path d="M267.9,509.19c-32.13,5.91-57.08,2.13-57.08,2.13-14.18-2.15-25.3-6.07-30.21-7.84-20.78-7.45-18.61-11.22-28.42-12.36-5.6-.65-25.76,4.42-52.27,14.16" style="fill:none; stroke:#010101; stroke-miterlimit:10; stroke-width:1.15px;"/><path d="M268.13,407.61c22.76,4.54,39.9,7.38,51.63,9.17,3.97,.6,12.94,1.83,24.46,4.96,11.8,3.21,20.96,7.12,25.92,9.23,8.77,3.72,13.16,5.59,16.7,8,1.4,.95,21.55,15.04,19.3,29.87-.19,1.27-.81,5.34-4.15,8.63-3.63,3.57-8.22,4.02-9.77,4.1" style="fill:none; stroke:#010101; stroke-miterlimit:10; stroke-width:1.15px;"/><path d="M573.02,618.42c-61,77.97-441.3-29.2-451.87-178.23-7.7-108.64,180.55-246.66,281.61-206.7,34.02,13.45,54.12,53.08,92.95,131.79,65.45,132.69,106.48,215.86,77.31,253.14Z" style="fill:#a8a9ad; opacity:.15;"/><path d="M35.65,347.85c3.85-1.39,7.66-2.93,11.69-3.53,1.31-.19,2.69-.18,4.03-.37,6.4-.93,10.3-.92,10.79-.97,9.6-.82,51.66,7.21,71.28,16.53,0,0,5.85,2.78,15.26,4.1,1.38,.19,3.32,.31,5.71-.1,4.28-.74,9.86-3.27,10.07-6.57,.05-.74-.19-1.25-.43-1.84-1.81-4.49-1.82-8.84-1.84-11.86-.02-4.87,1.21-8.53,1.98-10.7,.77-2.17,1.72-4.82,3.44-6.35,1.6-1.42,2.95-2.3,4.71-3.2,4.03-2.06,7.5-2.46,8.36-2.54,2.44-.24,2.61,.19,5.57,.15,4.8-.07,8.48-1.12,10.82-1.8,4.28-1.25,7.49-2.73,9.34-3.87,2.84-1.76,5.36-3.79,8.58-4.89,2.94-1.01,7.26-1.37,10.32-.4,3.53,1.13,5.2,5.05,8.07,6.79,2.78,1.69,6.82,1.71,9.96,1.52,4.19-.25,8.4-.28,12.62,.25,0,0,6.08,.26,12.65,1.58,11.26,2.26,28.58,11.49,35.01,27.97,2.52,6.48,3.11,12.86,3.03,15.4-.15,4.87,.14,10.25-1.42,14.94-.66,1.97-2.45,7.47-7.04,13-7.19,8.68-16.49,11.93-26.15,15.3-2.42,.84-4.29,1.34-5.74,1.66-3.88,.88-7.8,1.27-11.89,1.25-5.76-.02-11.52-.42-17.31-.18-3.98,.16-7.83,.27-11.71,1.13-2.77,.61-6.04,.36-5.95,3.96,.04,1.61,.52,3.47,.83,5.09,.38,1.98,.78,2.93,.86,3.16,2.03,5.92,16.1,8.93,18.43,9.42,1.03,.22,4.97,1.03,10.43,1.39,4.19,.27,7.71,.18,14.47-.34,11.95-.91,18.37-1.4,27.28-2.96,4.44-.78,7.16-1.41,11.98-1.75,2.4-.17,6.82-.37,12.35,.05,3.25,.25,6.05,.64,8.26,1.03" style="fill:none; stroke:#010101; stroke-miterlimit:10; stroke-width:1.15px;"/><path d="M267.9,509.19c-32.13,5.91-57.08,2.13-57.08,2.13-14.18-2.15-25.3-6.07-30.21-7.84-20.78-7.45-18.61-11.22-28.42-12.36-5.6-.65-25.76,4.42-52.27,14.16" style="fill:none; stroke:#010101; stroke-miterlimit:10; stroke-width:1.15px;"/><path d="M268.13,407.61c22.76,4.54,39.9,7.38,51.63,9.17,3.97,.6,12.94,1.83,24.46,4.96,11.8,3.21,20.96,7.12,25.92,9.23,8.77,3.72,13.16,5.59,16.7,8,1.4,.95,21.55,15.04,19.3,29.87-.19,1.27-.81,5.34-4.15,8.63-3.63,3.57-8.22,4.02-9.77,4.1" style="fill:none; stroke:#010101; stroke-miterlimit:10; stroke-width:1.15px;"/><path d="M238.99,408.73c2.31,4.76,7.47,13.55,17.61,19.7,3.47,2.1,6.82,3.47,9.73,4.38" style="fill:none; stroke:#010101; stroke-miterlimit:10; stroke-width:1.15px;"/><path d="M175.75,464.99c-1.21,2.93-.32,6.35,1.27,9.1,1.59,2.75,3.82,5.07,5.58,7.71,3.93,5.92,5.5,13.49,10.8,18.21,6.21,5.53,15.47,5.42,23.76,4.73,6.12-.5,12.25-1.15,18.39-1.19,16.02-.1,32.04,4,46.23,12.03,2.39,1.35,5.36-.31,5.59-3.05,.52-6.12,1.42-12.2,3.77-17.84,.96-2.3,2.15-4.49,3.37-6.66,2.63-4.68,5.41-9.27,8.87-13.64,2.68-3.39,1.63-8.42-2.34-10.12-16.85-7.22-35.3-10.5-53.16-15.03-6.11-1.55-12.27-3.29-17.63-6.59-7.04-4.33-12.7-11.32-20.73-13.3-4.24-1.05-8.7-.57-13.01-1.28-2.4-.4-3.1-.89-8.37-2.22-4.36-1.1-6.54-1.66-9.15-2.07-6.33-1.01-9.5-1.51-11.74,.42-1.87,1.61-2.8,4.63-2.01,7,.51,1.54,1.61,2.4,3.01,3.46,1.48,1.13,4.2,2.85,8.36,3.71" style="fill:#a8a9ad; stroke:#010101; stroke-miterlimit:10; stroke-width:1.15px;"/><path d="M184.64,464.96c-3.46-.44-8.63-1.38-14.55-3.64-7.36-2.82-13.66-5.23-14.68-10.34-.73-3.64,1.49-7.33,3.52-9.31,2.6-2.54,5.7-3.04,8.69-3.52,2.82-.45,5.59-.38,8.99,.22,6.72,1.19,10.7,3.87,13.79,4.78,7.3,2.17,15.18,2.39,22.59,.62" style="fill:#a8a9ad; stroke:#010101; stroke-miterlimit:10; stroke-width:1.15px;"/><path d="M192.7,444.01c-.32-.91-.86-2.44-1.55-4.33-2.75-7.48-4.88-15.19-8.08-22.49-.9-2.06-1.58-4.15-1.18-6.62,.36-2.24,2.3-4.4,4.56-4.16,2.44,.26,3.77,2.9,4.66,5.18,4.34,11.09,8.69,22.19,13.03,33.28" style="fill:#fff; stroke:#010101; stroke-miterlimit:10; stroke-width:1.15px;"/><path d="M288.64,512.22c56.65,17.03,113.29,34.06,169.94,51.09,2.72,.82,5.74,1.61,8.29,.38,1.85-.9,3.06-2.7,4.17-4.43,19.63-30.76,32.52-65.8,37.51-101.94" style="fill:none; stroke:#010101; stroke-miterlimit:10; stroke-width:1.15px;"/><path d="M304.47,473.14c37.25,3.66,74.51,7.17,111.77,10.69,.55,.05,1.15,.1,1.63-.18,.68-.38,.9-1.24,1.06-2,1.52-7.26,3.01-14.52,4.48-21.79" style="fill:none; stroke:#010101; stroke-miterlimit:10; stroke-width:1.15px;"/><path d="M423.03,383.86c-1,10.66-1.76,21.91-2.17,33.69-.52,14.96-.43,29.13,.09,42.4,39.15-3.16,79.2,2.66,116.81-5.87,3.32-12.14,6.32-25.3,8.75-39.41,5.69-33.17,6.7-63.2,5.64-88.58" style="fill:none; stroke:#010101; stroke-miterlimit:10; stroke-width:1.15px;"/><path d="M368.89,429.99c-11.22-40.55-7.03-71.22-3.07-88.23,3.93-16.87,11.98-51.41,38.82-81.26,12.83-14.26,29.7-27.19,33.48-51.02,1.38-8.71,.58-16.17-.32-21.15" style="fill:none; stroke:#010101; stroke-miterlimit:10; stroke-width:1.15px;"/><path d="M377.3,364.75c4.31-10.94,10.48-23.64,19.42-36.81,4.12-6.06,8.31-11.48,12.4-16.29-2.07-4.95-4.15-9.9-6.22-14.85,4.74-2.55,9.48-5.1,14.22-7.65,4.88-4.97,11.49-12.26,18.34-21.85,9.08-12.71,14.8-20.9,17.2-33.17,2.92-14.95-1.06-25.9-2.1-28.56-1.38-3.55-6.63-17.02-15.31-17.48-2.08-.11-3.86,.55-5.14,1.22" style="fill:none; stroke:#010101; stroke-miterlimit:10; stroke-width:1.15px;"/><path d="M453.64,218.88c10.32,2.75,25.77,8.17,41.76,19.44,8.62,6.08,22.88,17.71,36.91,39.83,20.54,32.38,20.3,57.15,30.9,93.53,10.12,34.74,23.81,68.43,40.76,100.39,22.06,41.59,50.39,82.58,52.74,129.6,.49,9.76-.28,19.9-4.82,28.55-2.08,3.96-4.89,7.48-7.72,10.94-22.59,27.53-36.11,39.37-52.21,47.46-26.86,13.5-53.47,12.66-68.23,10.86" style="fill:none; stroke:#010101; stroke-miterlimit:10; stroke-width:1.15px;"/><path d="M373.92,252.06c4.04,3.69,6.09,9.17,6.68,14.61,.58,5.33,.3,9.21-.86,16.36-.83,5.08-2.18,13.5-3.97,25.08" style="fill:none; stroke:#010101; stroke-miterlimit:10; stroke-width:1.15px;"/><path d="M355.42,425.09c-6.35-28.34-11.97-72.54-.35-123.59,4.17-18.31,9.84-34.37,15.8-48.06" style="fill:none; stroke:#010101; stroke-miterlimit:10; stroke-width:1.15px;"/><path d="M331.73,177.13c-18.15,8.49-36.29,16.98-54.44,25.47-.87,.41-1.84,.91-2.12,1.84-.23,.76,.07,1.56,.37,2.29,7.48,17.83,21.65,32.77,39.06,41.18,17.41,8.41,37.92,10.23,56.54,5.01,1.59-.44,3.25-1,4.31-2.26,1.07-1.28,1.31-3.03,1.48-4.69,1.54-15.05,.55-30.37-2.91-45.1-5.61,7.78-17.94,7.63-25.9,2.28-7.96-5.35-12.6-14.3-16.91-22.87-.72-1.43-1.09-3.73,.52-3.16Z" style="fill:none; stroke:#010101; stroke-miterlimit:10; stroke-width:1.15px;"/><path d="M366.66,121.08c-12.51,19.92-24.15,40.39-34.88,61.32" style="fill:none; stroke:#010101; stroke-miterlimit:10; stroke-width:1.15px;"/><path d="M386.78,162.71c-1.9,4.29-3.48,8.72-5.05,13.15-3.25,9.13-6.51,18.27-9.76,27.4" style="fill:none; stroke:#010101; stroke-miterlimit:10; stroke-width:1.15px;"/><path d="M424.39,127.37c.06,1.95,.06,3.91,0,5.88-.32,8.71-1.99,17.36-1.71,26.07,.53,16.84,8.22,32.51,15.74,47.58" style="fill:none; stroke:#010101; stroke-miterlimit:10; stroke-width:1.15px;"/><path d="M280.68,200.04c-7.72-27.41-28.28-50.58-32.08-78.8-3.19-23.67,6.53-48.21,23.55-64.96,17.02-16.75,40.67-25.98,64.5-27.55,11.24-.74,22.91,.22,32.98,5.27,8.55,4.29,15.43,11.27,21.64,18.54,13.01,15.22,23.99,33.02,29.45,52.1" style="fill:none; stroke:#010101; stroke-miterlimit:10; stroke-width:1.15px;"/><path d="M423.29,125.7c3.31,1.54,8.59,4.43,13.51,9.54,18.75,19.47,7.78,45.57,24.23,72.98,3.31,5.52,9.1,13.37,19.49,21.05" style="fill:none; stroke:#010101; stroke-miterlimit:10; stroke-width:1.15px;"/><path d="M495.41,238.33c-17.13-25.41-14.21-58.69-19.35-88.9-1.74-10.26-4.54-20.49-9.83-29.45-3.74-6.34-10.46-16.81-23.13-20-10.92-2.75-20.4,1.48-23.9,3.27" style="fill:none; stroke:#010101; stroke-miterlimit:10; stroke-width:1.15px;"/><path d="M538.73,222.86c5.64-2.43,11.29-4.86,16.93-7.29,45.89,104.55,91.79,209.1,137.68,313.65-6.03,2.05-12.06,4.1-18.09,6.15" style="fill:none; stroke:#3f4b9b; stroke-miterlimit:10; stroke-width:4.06px;"/><path d="M341.3,545.72c-.85,4.89-1.71,9.78-2.56,14.67-41.92-7.19-83.83-14.38-125.75-21.56,1.07-5.02,2.13-10.03,3.2-15.05" style="fill:none; stroke:#3f4b9b; stroke-miterlimit:10; stroke-width:2.23px;"/></svg>