<?xml version="1.0" encoding="UTF-8"?><svg id="Layer_1" xmlns="http://www.w3.org/2000/svg" viewBox="0 0 728.99 728.99"><path d="M494.98,376.03c27.74,68.54,78.22,193.27,29.84,236.88-44.24,39.87-152.34-5-229.62-37.09-35.11-14.58-55.77-23.34-80.12-42.59-12-9.49-102.77-81.26-95.66-179.34,7.82-107.79,130.39-199.44,224.72-179.78,75.49,15.73,108.66,97.69,150.85,201.93Z" style="fill:#a8a9ad; opacity:.15;"/><path d="M328.82,440.78c-1.83,2.46-3.06,3.83-3.06,3.83-3.99,4.46-11.07,12.21-22.78,17.18-6.41,2.72-12.1,3.72-17.44,4.66,0,0-10.24,1.72-20.42,1.58-14.1-.2-41.37-7.26-72.84-24.37-3.93-1.98-12.28-5.42-22.26-3.61-5.85,1.06-10.05,3.52-12.9,5.23-8.38,5.01-9.7,9.14-15.72,14.42-16.33,14.32-39.61,12.93-44.39,12.53-4.29-.36-7.77-1.12-10.01-1.69" style="fill:none; stroke:#010101; stroke-miterlimit:10; stroke-width:1.09px;"/><path d="M283.27,313.53c2.84,.38,5.66,.91,8.45,1.73,7.71,2.27,13.11,5.03,17.6,7.51,7.86,4.34,18.55,10.23,26.45,21.54,0,0,12.2,17.46,10.12,49.14" style="fill:none; stroke:#010101; stroke-miterlimit:10; stroke-width:1.09px;"/><path d="M84.62,350.82c7.38,.42,14.69,.61,21.99,1.42,4.23,.47,8.56,1.37,12.81,1.65,7.42,.49,14.94,1.29,22.37,1.26,5.07-.02,10.01,.65,15.06,.54,3.13-.07,7.15-.04,8.25-3.55,.62-1.97,.67-4.3,.68-6.32,0-2.63-.48-4.53-1.11-7.01-1.13-4.45-1.18-8.82-.42-13.35,.4-2.39,.81-3.38,2.39-5.18,.77-.88,2.69-2.9,5.23-4.34,7.22-4.1,20.31-3.72,22.92-5.46,.16-.11,.85-.6,1.88-.84,.59-.14,1.21-.16,2.05-.09,1.84,.13,2.06,.78,3.45,1.9,1.04,.83,2,1.26,3.22,.71,.73-.33,1.18-1.04,1.93-1.4,.7-.33,1.92-.61,2.7-.78,3.22-.72,5.39,1.7,8.29,2.55,4.05,1.19,6.41-2.13,8.51-5.02,2.12-2.91,3.24-4.84,7.12-5.26,4.61-.51,10.16,1.99,13.2,3.33,7.26,3.2,11.18,4.9,16.05,6.1,3.43,.84,6.3,1.18,8.13,1.33" style="fill:none; stroke:#010101; stroke-miterlimit:10; stroke-width:1.09px;"/><path d="M295.19,413.38c32.75,24.59,55.96,44.12,72.13,58.44,4.39,3.89,22.05,17.01,47.07,27.52,9.91,4.16,22.01,7.18,30.84,1.05,7.02-4.88,9.36-12.97,11.55-23.11,3.22-14.95,6.94-35.72,9.27-61.61" style="fill:none; stroke:#010101; stroke-miterlimit:10; stroke-width:1.09px;"/><path d="M400.74,444.02c-3.11-18.5-5.03-37.19-5.75-55.94" style="fill:none; stroke:#010101; stroke-miterlimit:10; stroke-width:1.09px;"/><path d="M321.44,380.96c19.86,9.42,40.25,20.03,60.98,32.03,5.04,2.92,10,5.86,14.88,8.82" style="fill:none; stroke:#010101; stroke-miterlimit:10; stroke-width:1.09px;"/><path d="M395.24,260.25c-10.07,36.43-13.26,74.35-16.33,112.02-.42,5.17-.21,11.56,4.39,13.96,1.51,.78,3.25,.96,4.93,1.15,30.72,3.4,60.48,15.09,85.31,33.5,1.55,1.15,3.5,2.38,5.27,1.61,1.1-.48,1.75-1.62,2.3-2.69,5.68-11.06,9.49-22.97,13.27-34.82,8.51-26.67,17.12-54.12,15.18-82.05" style="fill:none; stroke:#010101; stroke-miterlimit:10; stroke-width:1.09px;"/><path d="M344.55,368.49c5.96-31.97,18.42-80.66,45.83-127.47,0,0,21.7-46.05,65.27-61.95,1.85-.67,3.76-1.29,5.73-1.27,4.42,.05,8.27,3.41,10.22,7.37,1.96,3.97,2.39,8.49,2.79,12.89-13.88,4.88-31.39,12.51-49.98,24.61-20.54,13.37-35.67,27.81-46.14,39.42" style="fill:none; stroke:#010101; stroke-miterlimit:10; stroke-width:1.09px;"/><path d="M316.86,150.85c2.67,17.51,11.6,34.1,25.16,45.48,13.56,11.39,31.7,17.35,49.32,15.6,.96-.1,1.96-.23,2.77-.75,1.41-.9,1.9-2.71,2.23-4.35,2.35-11.67,2.56-23.78,.62-35.53-.26-1.6-.68-3.37-2.05-4.24-2.04-1.3-4.61,.21-6.89,1.02-7.41,2.62-15.45-2.99-19.35-9.81-3.9-6.82-5.16-14.84-8.49-21.95-.28-.6-.61-1.23-1.19-1.55-.77-.43-1.72-.21-2.57,.04-13.65,3.93-26.93,9.13-39.55,16.04Z" style="fill:none; stroke:#010101; stroke-miterlimit:10; stroke-width:1.09px;"/><path d="M360.31,136.42c9.65-14.87,20.3-29.1,31.85-42.56" style="fill:none; stroke:#010101; stroke-miterlimit:10; stroke-width:1.09px;"/><path d="M393.44,166.34c5.54-13.99,12.32-27.49,20.24-40.29" style="fill:none; stroke:#010101; stroke-miterlimit:10; stroke-width:1.09px;"/><path d="M397.59,208.13c3.29,3.16,5.47,7.44,6.09,11.96" style="fill:none; stroke:#010101; stroke-miterlimit:10; stroke-width:1.09px;"/><path d="M320.23,149.29c-2.39-17.88-9-34.94-11.98-52.73-2.98-17.79-1.74-37.61,9.72-51.53,5.08-6.17,11.8-10.74,18.42-15.21,3.99-2.7,8-5.41,12.36-7.45,7.35-3.44,15.46-4.89,23.5-5.93,16.59-2.15,34.35-2.52,49.02,5.51,11.29,6.18,19.62,16.83,25.11,28.47,5.49,11.64,8.36,24.31,10.89,36.93" style="fill:none; stroke:#010101; stroke-miterlimit:10; stroke-width:1.09px;"/><path d="M457.73,178.59c-7.2-10.36-5.87-24.29-3.14-36.61,2.73-12.32,6.58-25.08,3.46-37.3" style="fill:none; stroke:#010101; stroke-miterlimit:10; stroke-width:1.09px;"/><path d="M495.5,236.27c-12.84-23.89-16.93-43.86-18.21-58.01-1.42-15.62-.03-30.96-7.82-51.59-3.63-9.62-7.99-17.01-11.15-21.81" style="fill:none; stroke:#010101; stroke-miterlimit:10; stroke-width:1.09px;"/><path d="M456.48,85.99c4.69,.28,12.37,1.37,20.48,5.72,11.11,5.96,16.74,14.68,19.08,18.31,14.49,22.43,12.57,57.57,12.07,70.9-.89,23.61-.3,56.48,6.26,97.74" style="fill:none; stroke:#010101; stroke-miterlimit:10; stroke-width:1.09px;"/><path d="M474.39,198.07c12.1,19.9,28.65,50.05,43.18,88.94,4.77,12.75,6.61,19.19,20.81,68.72,24.94,86.95,37.3,130.59,39.23,135.61,10.75,27.95,23.13,55.75,26.9,85.46,3.77,29.71-2.54,62.49-24.32,83.05-3.46,3.26-8.47,8.02-31.98,20.39-18.89,9.94-44.22,22.03-75.53,33.65" style="fill:none; stroke:#010101; stroke-miterlimit:10; stroke-width:1.09px;"/><path d="M266.43,318.87c9.05-9.57,18.1-19.15,27.15-28.72,1.17-1.24,2.6-2.59,4.31-2.43,2.07,.2,3.28,2.68,2.91,4.73-.38,2.05-1.83,3.71-3.23,5.25-8.17,9.04-16.35,18.09-24.52,27.13-2.7-1.41-5.04-3.49-6.76-6,.25-.49,.78-.82,.14,.03Z" style="fill:none; stroke:#010101; stroke-miterlimit:10; stroke-width:1.09px;"/><path d="M385.67,484.67c1.15,8.57,2.08,17.55,2.71,26.91,1.89,28.16,.65,53.79-2.06,76.2" style="fill:none; stroke:#010101; stroke-miterlimit:10; stroke-width:1.09px;"/><path d="M223.89,339.7c1.24-2.09,3.54-2.92,4.8-3.25-.57-3.13-.25-5.72,.74-7.85,1.33-2.89,2.92-2.92,3.39-5.39,.59-3.16-1.67-4.89-.51-7.8,.62-1.56,1.65-1.99,1.37-2.63-.38-.85-2.26-.69-7.55-.62-4.94,.06-5.11-.06-5.17-.2-.9-1.84,11.24-14.07,22.29-12.04,5.52,1.01,4.63,4.23,14.41,10.06,5.93,3.53,13.38,4.69,18.16,9.67,2.54,2.64,4.03,6.09,5.76,9.32,6.38,11.91,16.35,21.43,26.15,30.74l14.52,13.78c2.55,2.42,1.6,6.65-1.73,7.78-6.45,2.19-12.21,6.62-16.37,12.09-4.66,6.13-7.51,13.42-9.18,20.98-.56,2.53-3.72,3.41-5.56,1.6-18.85-18.59-37.61-37.27-56.29-56.03-.35-.35-4.75-3.69-7.72-9.63-1.32-2.64-3.55-7.11-1.53-10.54Z" style="fill:#a8a9ad; stroke:#010101; stroke-miterlimit:10; stroke-width:1.09px;"/><path d="M526.98,192.66c5.77-1.56,11.53-3.12,17.3-4.68,33.37,119.71,66.73,239.42,100.1,359.13-6.1,1.08-12.2,2.17-18.3,3.25" style="fill:none; stroke:#3f4b9b; stroke-miterlimit:10; stroke-width:4.05px;"/><path d="M346.84,469.5c-2.96,3.81-5.92,7.62-8.87,11.44-32.75-25.24-65.49-50.48-98.24-75.72,3.2-3.82,6.4-7.65,9.59-11.47" style="fill:none; stroke:#3f4b9b; stroke-miterlimit:10; stroke-width:2.1px;"/></svg>