<?xml version="1.0" encoding="UTF-8"?><svg id="Layer_1" xmlns="http://www.w3.org/2000/svg" viewBox="0 0 728.99 728.99"><path d="M585.05,340.04c19.49,68.5,29.23,102.76,14.08,139.38-40.98,99.01-215.8,103.05-250.88,103.86-41.16,.95-207.98,4.8-242.87-74.09C49.75,383.45,342.96,78.36,473.54,130.7c58.63,23.5,85.99,119.66,111.51,209.34Z" style="fill:#a8a9ad; opacity:.15;"/><path d="M549.8,277.71c-4.06-2.33-5.18-7.93-3.93-12.44,1.26-4.51,4.31-8.27,7.03-12.08,8.32-11.63,25.57-54.8,14-92.9-12.5-41.16-53.77-66.46-90.29-72.64-44.85-7.59-96.65,11.25-109.41,40.88-7.68,17.83-8.28,32.32-8.28,32.32-.64,15.55,.13,22.56-2.11,34.99-.95,5.29-7.42,8.69-7.17,14.05,.28,6.23,6.75,10.38,13.46,12.11-5.54,5.95-3.62,15.5-.66,23.07,3.77,9.63,8.69,18.8,14.61,27.27,2.59,3.7,5.42,7.32,9.01,10.05,4.83,3.67,10.74,5.54,16.53,7.35,7.38,2.3,16.15,4.39,22.25-.37-13.76-3.95-25.5-14.43-30.97-27.67-.52-1.26-1.05-2.61-2.18-3.37-.94-.63-2.13-.72-3.25-.91-9.16-1.48-15.53-9.62-20.9-17.19-4.89-6.89-4.58-14.47-4.54-18.28" style="fill:none; stroke:#010101; stroke-miterlimit:10; stroke-width:1.14px;"/><path d="M69.2,264.96c-3.12,2.3-4.51,6.28-4.21,10.01,.3,3.73,2.1,7.23,4.4,10.27,1.29,1.71,4.68,4.97,9.41,4.76,3.69-.17,6.16-2.44,6.89-3.17,3.03-3.04,3.19-6.8,3.21-7.62" style="fill:none; stroke:#010101; stroke-miterlimit:10; stroke-width:1.14px;"/><path d="M354.46,300.92c-5.88-5.9-10.71-10.26-14.03-13.13-2.4-2.08-5.12-4.35-8.78-6.74-1.71-1.12-3.57-2.22-5.61-3.31-1.79-.95-3.63-1.8-5.63-2.6-9.87-3.99-20.87-4.54-31.44-3.24-10.57,1.3-20.83,4.37-31.03,7.42-13.58,4.07-17.47,5.91-28.81,8.63-8.78,2.1-16.07,3.25-20.8,3.89-5.22-9.03-10.44-18.05-15.66-27.08" style="fill:none; stroke:#010101; stroke-miterlimit:10; stroke-width:1.14px;"/><path d="M115.55,321.43c-4.1,3.64-10.33,8.83-18.42,14.33-20.25,13.74-29.49,13.96-42.56,23.25-20.05,14.24-28.1,34.89-29.45,38.47-8.86,23.61-4.11,46.29-.95,61.42,2.63,12.57,7.37,27.18,7.37,27.18,1.48,4.55,2.82,8.32,3.81,10.98" style="fill:none; stroke:#010101; stroke-miterlimit:10; stroke-width:1.14px;"/><path d="M126.5,323.17c33.18,37.48,70.71,71.11,111.6,99.99,8.98,6.34,18.51,12.62,29.36,14.38,9.19,1.49,16.43,.33,18.79-.06,18.75-3.04,77.61-8.57,160.4-15.73" style="fill:none; stroke:#010101; stroke-miterlimit:10; stroke-width:1.14px;"/><path d="M427.69,423.31c7.09,12.38,20.05,31.06,38.18,38.14,2.66,1.04,7.3,2.81,8.7,1.14,2.43-2.88-6.54-13.99-17.17-27.25-24.79-30.92-37.18-46.39-38.11-47.79,0,0-22.8-34.52-38.35-44.14-2.26-1.4-4.41-1.47-4.41-1.47-1.17-.04-2.14,.2-5.63,1.53-1.4,.54-3.19,1.24-5.27,2.11,11.1-6.54,22.76-13.1,34.96-19.61,14.53-7.75,28.71-14.82,42.42-21.27" style="fill:none; stroke:#010101; stroke-miterlimit:10; stroke-width:1.14px;"/><path d="M405.01,289.37c-2.72,3.64-5.79,8.52-8.35,14.66-4.47,10.73-5.35,20.51-5.41,26.81" style="fill:none; stroke:#010101; stroke-miterlimit:10; stroke-width:1.14px;"/><path d="M423.02,298.99c-3.84,1-7.02,3.84-9.29,7.19-2.36,3.48-3.79,6.94-5.19,11.01-.77,2.23-1.29,4.14-1.62,5.5" style="fill:none; stroke:#010101; stroke-miterlimit:10; stroke-width:1.14px;"/><path d="M152.03,287.98c20.82,14.34,39.06,23.03,52.06,28.36,18.48,7.58,28.65,9.3,60.61,21.91,21.96,8.66,21.57,9.59,28.86,11.86,17.56,5.47,44.54,7.78,84.23-8.67" style="fill:none; stroke:#010101; stroke-miterlimit:10; stroke-width:1.14px;"/><path d="M252.44,170.93c27.61-15.58,46.52-43,72.38-61.35,6.19-4.39,12.76-8.25,19.61-11.51,6.6-3.14,13.96-5.78,21.11-4.26,8.59,1.83,14.92,9.21,23.11,12.38" style="fill:none; stroke:#010101; stroke-miterlimit:10; stroke-width:1.14px;"/><path d="M285.55,199.09c25.6-15.18,50.44-31.65,74.37-49.34" style="fill:none; stroke:#010101; stroke-miterlimit:10; stroke-width:1.14px;"/><path d="M616.08,390.53c9.9,26.03,25.69,49.31,37.61,74.39,11.9,25.01,21.15,51.28,27.57,78.22,3.69,15.52,7.08,31.76,4.63,47.75" style="fill:none; stroke:#010101; stroke-miterlimit:10; stroke-width:1.14px;"/><path d="M619.73,399.77c-9.09-16.37-3-36.61-4.07-55.3-1.1-19.3-10.08-37.56-10.67-56.89-.56-18.48,6.58-37.26,1.86-55.14-4.75-17.98-20.3-30.7-34.97-42.13" style="fill:none; stroke:#010101; stroke-miterlimit:10; stroke-width:1.14px;"/><path d="M549.23,257.59c2.67,5.89,5.33,11.78,8,17.67-16.45,7.8-30.38,11.26-40.01,12.98-20.24,3.62-30.2,1.12-48.62,6.06-14.74,3.95-25.88,10.25-32.87,14.83,32.52-1.37,58.36-.08,76.97,1.54,14.66,1.28,30.06,3.22,38.83-6.14,4.46-4.76,10.41-15.87,7.14-25.97-.45-1.4-1-2.52-1.44-3.31" style="fill:none; stroke:#010101; stroke-miterlimit:10; stroke-width:1.14px;"/><path d="M421.7,289.93c9.24,.33,18.57,.65,27.68-.96,9.11-1.61,18.11-5.32,24.51-12" style="fill:none; stroke:#010101; stroke-miterlimit:10; stroke-width:1.14px;"/><path d="M454.79,287.25c-.42,4.12-.84,8.25-1.26,12.37" style="fill:none; stroke:#010101; stroke-miterlimit:10; stroke-width:1.14px;"/><path d="M488.62,414.19c-.45,17.07-6.42,33.94-14.04,48.4,18.83,34.61,63.03,47.63,86.4,79.36" style="fill:none; stroke:#010101; stroke-miterlimit:10; stroke-width:1.14px;"/><path d="M99.47,299.88c-6.36-.72-16.3-2.76-26.15-9.29-24.35-16.13-27.11-45.72-27.73-52.37-.6-6.39-3.77-40.42,21.71-62.38,22.93-19.76,53.5-16.16,59.31-13.35,2.74,1.33,5.35,2.95,8.25,3.87,2.31,.74,4.78,1.02,6.93,2.15,4.41,2.32,6.68,6.13,7.62,7.65,2.59,4.22,8.83,11.01,25.04,22.22" style="fill:none; stroke:#010101; stroke-miterlimit:10; stroke-width:1.14px;"/><path d="M201.86,241.07c-.87,3.47-2.45,6.65-4.42,10.44-4.6,8.82-10.1,18.95-17.12,27.65-4.99,6.17-10.03,10.77-15.81,14.41-3.74-1.56-7.12-3.95-10.67-6.47-4.64-3.29-9.45-6.69-15.2-8.12-8.27-2.06-17.44,.59-23.35,6.73-2.01,2.09-3.37,4.29-4.03,6.55-.72,2.45-.71,5.3,.03,8.47,1.5,6.4,5.3,11.97,8.65,16.9l3.99,5.86c-3.66-1.04-7.82-2.97-10.58-6.66-2.97-3.96-3.86-9.34-4.65-14.08-1.86-11.16-2.52-18-1.27-27.79,.79-6.13,1.84-13.79,6.61-22.31,1.44-2.58,2.87-4.6,3.93-5.98-.72-.91-1.68-2.35-2.24-4.3-1.05-3.65-.93-9.9,3.74-13.09,3.5-2.39,8.4-2.27,12.33,.29,.86,.98,1.76,1.93,2.73,2.82l2.67-2.92c-2.83-2.59-5.15-5.64-6.89-9.06-.55-1.07-2.2-4.72-.56-6.58,1.29-1.46,4.2-.99,6.11,.36,1.23,.87,2.31,2.01,3.44,3.22,1.05,1.12,2.14,2.28,3.42,3.28,1.07,.84,2.2,1.51,3.29,2.17,.64,.38,1.28,.76,1.89,1.17,1.55,1.04,2.97,2.27,4.46,3.57,1.01,.88,2.02,1.76,3.08,2.58,3.54,2.75,6.83,4.15,10.07,4.26l.14-3.96c-2.37-.08-4.92-1.2-7.77-3.43-1-.78-1.95-1.61-2.91-2.44-.21-.18-.44-.37-.65-.55,2.6-.25,5.22-.4,7.83-.31,1.7,.05,3.49,.18,5.05,.75,3.72,1.35,6.22,5.14,8.64,8.81l.51,.77c2.59,3.9,6.73,9.14,12.72,9.61l.31-3.95c-3.87-.3-6.87-3.73-9.13-6.99l14.14-1.65c1.57-.18,3.2-.38,4.51,.1,1.46,.53,2.68,2,3.17,3.85,.44,1.67,.37,3.64-.22,6.03Z" style="fill:#a8a9ad; stroke:#a8a9ad; stroke-miterlimit:10; stroke-width:1.25px;"/><path d="M288.13,208.67c-2.74,2.28-5.86,4.36-8.88,6.37-2.44,1.63-4.97,3.31-7.33,5.12-2.67,2.04-5.2,4.29-7.64,6.47-3.64,3.25-7.08,6.32-11.02,8.81-4.23,2.67-9.03,4.65-13.67,6.55-5.05,2.07-10.27,4.22-14.97,7.31-1.41,.93-2.78,1.95-4.14,2.97-3.09,2.3-6.01,4.48-9.39,5.59-1.23,.4-2.19,.43-2.64,.1-.81-.62-.2-2.75,.83-4.37,5.99-9.4,15.38-16.1,24.48-22.16,1.03-.69,1.39-1.99,.86-3.11-.53-1.12-1.78-1.66-2.97-1.29-8.4,2.62-17.37,4.18-26.66,4.7-1.08-2-2.77-3.56-4.74-4.27-2.19-.78-4.47-.52-6.3-.3l-16.18,1.89c-.6-.88-1.24-1.76-1.91-2.6q38.96-12.2,38.24-14.74c-.55-1.84-2.24-1.49-4.19-1.09-1.67,.34-4.18,.86-7.4,1.26-5.01,.62-9.54,.69-16.74,.26-7.95-.48-29.59-2.92-34.16-8.38-.22-.26-.34-.44-.42-.48,.21-.14,.73-.41,1.86-.66,10.35-2.29,30.2-1,30.4-.99,7.1,.47,14.45,.03,21.85-1.31l-.71-3.9c-7.07,1.29-14.1,1.71-20.87,1.26-.24-.02-2.09-.13-4.81-.24,7.41-6.04,15.24-10.03,23.32-11.86,3.49-.79,5.96-1.03,8.83-1.31,2.07-.2,4.3-.42,7.19-.86,10.15-1.56,19.91-5.56,28.24-11.58l-.23-.31c1.71-1.37,3.1-1.86,4.12-1.41,.72,.32,1.4,1.18,2.14,2.13,5.55,7.11,11.29,14.46,18.35,20.41,5.16,4.35,10.59,7.53,16.13,9.45,1.31,.45,2.23,1.53,2.48,2.89,.25,1.39-.25,2.77-1.35,3.68Z" style="fill:#a8a9ad; stroke:#a8a9ad; stroke-miterlimit:10; stroke-width:1.25px;"/><path d="M182.71,214.36c.42,2.39,.84,4.78,1.26,7.17" style="fill:none; stroke:#010101; stroke-miterlimit:10; stroke-width:1.14px;"/><path d="M128.51,326.15c-6.38-.78-12.9-3.28-16.76-8.43-3.18-4.25-4.15-9.7-5.02-14.94-1.7-10.19-2.8-18.47-1.25-28.51,3.43-22.25,18.34-38.48,18.07-38.65-.19-.12-5.07,9.7-7.51,8.98-2.42-.71-4.38-12.39,2.26-17.32,3.85-2.86,9.67-2.78,14.56,.22" style="fill:none; stroke:#010101; stroke-miterlimit:10; stroke-width:1.14px;"/><path d="M135.85,230.64c-2.99-2.74-5.48-6.01-7.32-9.62-1.42-2.78-2.34-6.45-.27-8.79,2.11-2.39,6.12-1.79,8.73,.05,2.61,1.84,4.44,4.59,6.95,6.56,1.58,1.24,3.39,2.14,5.06,3.25,2.74,1.83,5.06,4.21,7.66,6.23s5.63,3.73,8.92,3.84" style="fill:none; stroke:#010101; stroke-miterlimit:10; stroke-width:1.14px;"/><path d="M149.94,222.27c4.05-.65,8.16-.92,12.26-.79,1.92,.06,3.87,.21,5.67,.87,4.62,1.68,7.4,6.25,10.12,10.34,2.72,4.09,6.32,8.35,11.22,8.74" style="fill:none; stroke:#010101; stroke-miterlimit:10; stroke-width:1.14px;"/><path d="M245.3,169.95c-8.07,5.83-17.54,9.72-27.38,11.23-6.91,1.06-10.03,.81-16.16,2.2-7.12,1.61-16.75,5.39-27.32,15" style="fill:none; stroke:#010101; stroke-miterlimit:10; stroke-width:1.14px;"/><path d="M204.91,198.1c-9.11,1.66-16.42,1.62-21.36,1.29,0,0-20.21-1.35-30.96,1.03-1.87,.41-3.15,1.05-3.41,2.04-.25,.97,.58,1.96,.87,2.3,6.12,7.32,35.56,9.09,35.56,9.09,7.14,.43,11.87,.38,17.11-.28,5.7-.71,9.38-1.81,9.45-1.58,.1,.33-7.14,2.96-39.7,13.15" style="fill:none; stroke:#010101; stroke-miterlimit:10; stroke-width:1.14px;"/><path d="M203.87,233.52c9.66-.44,19.27-2.05,28.35-4.88,.55-.17,.89,.54,.42,.85-9.51,6.33-18.94,13.15-25.05,22.74-1.39,2.18-2.42,5.44-.36,7.01,1.23,.94,2.98,.69,4.45,.21,5.26-1.72,9.38-5.74,14-8.78,8.86-5.84,19.65-8.17,28.61-13.85,6.85-4.34,12.36-10.46,18.8-15.38,5.25-4.01,11.23-7.35,16.28-11.54,3.49-2.89,2.53-8.48-1.75-9.96-5.65-1.95-10.91-5.22-15.5-9.09-6.96-5.87-12.61-13.13-18.22-20.31-.78-.99-1.6-2.03-2.76-2.53-2.79-1.22-5.76,1.11-7.91,3.26" style="fill:none; stroke:#010101; stroke-miterlimit:10; stroke-width:1.14px;"/><path d="M191.52,264.35c2.31,2.03,27.65,24.42,32.93,31.09,1.14,1.44,2.15,3.17,1.75,4.92-.44,1.91-2.48,3.37-4.4,3.69-2.99,.5-5.65-1.76-6.93-2.88-4.91-4.29-15.61-13.95-29.55-27.01" style="fill:#fff; stroke:#010101; stroke-miterlimit:10; stroke-width:1.23px;"/><path d="M176.41,230.92c5.91-.69,11.83-1.38,17.74-2.07,1.81-.21,3.69-.41,5.41,.2,2.23,.8,3.81,2.91,4.42,5.2s.36,4.72-.22,7.02c-.95,3.83-2.76,7.38-4.59,10.87-5.08,9.74-10.43,19.43-17.34,27.97-4.73,5.85-10.17,11.13-17.15,15.37-9.54-3.58-16.65-12.41-26.55-14.87-7.56-1.88-16.04,.57-21.44,6.18-1.57,1.64-2.91,3.55-3.55,5.73-.71,2.41-.51,5.01,.06,7.46,1.4,5.96,4.91,11.17,8.36,16.23,2.16,3.17,4.32,6.34,6.48,9.5" style="fill:none; stroke:#010101; stroke-miterlimit:10; stroke-width:1.14px;"/><path d="M393.04,260.4c23.22-17.75,46.45-35.49,69.67-53.24" style="fill:none; stroke:#010101; stroke-miterlimit:10; stroke-width:1.14px;"/><path d="M424.86,289.37c16.77-16.1,33.53-32.2,50.3-48.31" style="fill:none; stroke:#010101; stroke-miterlimit:10; stroke-width:1.14px;"/><path d="M126.71,346.37l.33,24.64-9.93-22.55-9.72,22.64,.1-24.64-18.09,16.73,10.11-22.47-23.33,7.93,18.38-16.41-24.54-2.25,23.46-7.52-21.5-12.03c8.16,.89,16.33,1.78,24.49,2.67" style="fill:none; stroke:#e52629; stroke-miterlimit:10;"/><polyline points="595.81 193.69 605.38 163.35 608.43 195.01 629.51 171.19 619.42 201.36 648.37 188.16 626.87 211.62 658.69 211.34 629.51 224.03 658.69 236.72 626.87 236.44 648.37 259.9 619.42 246.7" style="fill:none; stroke:#e52629; stroke-miterlimit:10;"/><polyline points="562.98 273.08 578.72 260.67 569.08 278.24 588.51 273.31 572.55 285.45 592.31 288.84 572.8 293.44 589.47 304.58 569.77 300.84 580.47 317.79 564 306.37 566.87 326.21 556.47 309.07" style="fill:none; stroke:#e52629; stroke-miterlimit:10;"/><path d="M633.19,323.39c6.55,.1,13.11,.19,19.66,.29-2.12,18.42-4.24,36.83-6.36,55.25,20.83,39.53,41.65,79.06,62.48,118.59-5.4,2.7-10.8,5.4-16.2,8.1" style="fill:none; stroke:#e52629; stroke-miterlimit:10; stroke-width:3.16px;"/></svg>