<?xml version="1.0" encoding="UTF-8"?><svg id="Layer_1" xmlns="http://www.w3.org/2000/svg" viewBox="0 0 728.99 728.99"><path d="M224.01,351.88c7.23-.12,12.86,1.02,16.59,2.05,3.33,.93,6.11,2.04,7.68,2.67,0,0,5.24,2.12,10.34,5.02,20.95,11.92,29.89,26.15,29.89,26.15,9.96,15.85,8.64,32.55,7.55,46.22-.66,8.33-4.71,31.28-17.47,48.47-5.35,7.2-11.38,12.16-11.83,12.53-1.65,1.34-6.9,5.48-14.63,8.99-14.9,6.79-28.74,6.62-38.76,6.39-4.15-.09-14.49-.23-27.71-3.83-16.53-4.5-19.65-9.83-46.88-21.12,0,0-10.96-4.55-22.79-3.7-2.54,.18-5.59,.4-8.48,2.18-2.58,1.58-4.73,3.18-4.73,3.18-5.8,7.22-11.81,11.9-16.1,14.76-1.26,.84-6.9,4.57-15.17,7.69-6.91,2.61-12.82,3.79-16.74,4.37-3.67,.55-7.91,1.16-13.54,.77-4.21-.29-7.71-1.04-10.25-1.73" style="fill:none; stroke:#010101; stroke-miterlimit:10; stroke-width:3.63px;"/><path d="M28.54,390.35c7.55,.43,15.04,.62,22.51,1.45,4.33,.48,8.76,1.4,13.12,1.69,7.6,.5,15.29,1.32,22.91,1.29,5.19-.02,10.25,.67,15.42,.55,3.2-.07,7.32-.04,8.45-3.64,.64-2.02,.69-4.4,.69-6.48,0-2.69-.5-4.64-1.14-7.18-1.16-4.56-1.21-9.03-.44-13.67,.41-2.44,.83-3.46,2.45-5.31,.79-.9,2.76-2.97,5.36-4.44,7.39-4.2,20.8-3.81,23.47-5.59,.17-.11,.88-.61,1.93-.86,.6-.14,1.24-.16,2.1-.1,1.88,.14,2.11,.8,3.53,1.95,1.06,.85,2.05,1.29,3.29,.73,.74-.33,1.21-1.07,1.97-1.43,.72-.34,1.97-.62,2.76-.8,3.29-.74,5.52,1.74,8.49,2.61,4.15,1.22,6.56-2.18,8.71-5.14,2.17-2.98,3.32-4.95,7.29-5.39,4.72-.52,10.4,2.04,13.51,3.41,7.44,3.27,11.45,5.02,16.44,6.24,3.51,.86,6.45,1.21,8.32,1.36" style="fill:none; stroke:#010101; stroke-miterlimit:10; stroke-width:3.63px;"/><path d="M379.97,207.59c-10.41-1.25-25.94-2.98-44.89-4.53-24.27-1.98-36.41-2.98-41.85-1.9-14.56,2.89-30.71,19.97-63.02,54.14-26.45,27.98-26.01,32.55-37.68,46.55-3.47,4.17-4.86,9.03-4.86,14.58,.69,8.33,6.94,15.28,13.89,20.14,9.03,5.56,18.06,8.33,28.47,6.94,2.08-.69,3.47-2.78,4.86-4.17,9.38-11.89,18.46-20.93,25.71-27.45,0,0,14.19-12.76,34.3-24.49,2.99-1.75,6.55-3.71,11.56-5.11,9.37-2.62,17.26-1.4,22.19-.59,13.64,2.25,32.37,5.36,55.02,9.71" style="fill:none; stroke:#010101; stroke-miterlimit:10; stroke-width:3.63px;"/><path d="M471.51,190.5c7.94,.24,14.23,1.26,18.24,2.06,36.87,7.34,58.96,31.52,64.42,37.92,3.06,3.59,5.28,6.58,6.76,8.68,36.48,51.55,53.42,134.63,87.03,193.55,3.73,6.53,9.13,16.26,19.94,35.72,11.9,21.43,15.81,29.73,21.22,41.21,4.72,10.01,9.23,20.32,10.73,31.29,2.91,21.29-4.98,38.23-14.14,57.95-5.93,12.76-15.98,30.98-32.84,50.16" style="fill:none; stroke:#010101; stroke-miterlimit:10; stroke-width:3.63px;"/><path d="M388.33,302.25c-6.31,20.77-5.31,37.63-3.96,47.22,4.18,29.7,20.2,50.31,27.96,60.06,6.27,7.88,6.6,6.54,26.04,27.74,12.8,13.96,23.3,26.15,26.39,29.86,9.92,11.95,26.62,36.88,39.08,87.03" style="fill:none; stroke:#010101; stroke-miterlimit:10; stroke-width:3.63px;"/><path d="M400.61,372.92c.96-1.62,1.65-3.71,2.35-5.09,2.78-5.56,6.94-9.72,8.33-15.97-2.08-4.17-7.64-4.86-10.91-8.24,3.16-1.87,2.39,1.72,0,0,3.97-2.87,10.22-2.87,12.3-9.12-4.17-8.33-5.56-18.06-5.99-27.15" style="fill:none; stroke:#010101; stroke-miterlimit:10; stroke-width:3.63px;"/><path d="M501.93,510.59c7.17-3.79,14.55-7.96,22.08-12.55,15.31-9.31,28.92-18.92,40.91-28.29,1.9,3.16,3.81,6.33,5.71,9.5,1.79,2.99,3.57,5.98,5.35,8.96-12.92,7.93-25.83,15.86-38.75,23.79" style="fill:none; stroke:#010101; stroke-miterlimit:10; stroke-width:3.63px;"/><path d="M574.04,490.67c10.22,23.41,17.43,40.29,18.34,42.45,.37,.87,1.22,2.94,.4,4.84-.54,1.26-1.6,1.93-2.08,2.23-2.7,1.67-12.17,7.22-25.11,14.58" style="fill:none; stroke:#010101; stroke-miterlimit:10; stroke-width:3.63px;"/><path d="M321.36,202.88c-1.64-8.29-3.28-16.58-4.92-24.87-1.22-6.18-2.44-12.36-3.07-18.63-1.11-11.05-.32-22.39,3.3-32.89,5.7-16.52,18.41-30.31,34-38.21,15.59-7.9,33.84-10.05,51.05-6.98,6.61,1.18,11.63,3.34,13.83,4.31,33.84,14.97,40.06,78.49,40.43,82.72" style="fill:none; stroke:#010101; stroke-miterlimit:10; stroke-width:3.63px;"/><path d="M455.66,166.84c6.1,.7,13.16,2.1,20.73,4.81,22.44,8.03,36.46,22.91,43.37,31.59" style="fill:none; stroke:#010101; stroke-miterlimit:10; stroke-width:3.63px;"/><path d="M396.3,206.69c6.37-.76,15.84-2.29,26.9-5.74,13.33-4.16,18.96-7.98,25.29-10.05,10.57-3.45,27.28-3.36,53.66,13.57" style="fill:none; stroke:#010101; stroke-miterlimit:10; stroke-width:3.63px;"/><path d="M379.31,207.64c2.38,3.58,5.01,7.93,7.58,13.02,0,0,3.37,6.68,5.95,13.84,3.68,10.19,7.47,32.07,6.72,60.59" style="fill:none; stroke:#010101; stroke-miterlimit:10; stroke-width:3.63px;"/><path d="M399.61,292.36c.64,4.95-1.58,9.35-5.15,10.88-3.52,1.51-7.01-.35-7.67-.7-3.82-2.04-6.08-6.48-6.01-11.46,2.8,.48,5.89,.87,9.25,1.11,3.46,.24,6.67,.27,9.57,.18Z" style="fill:none; stroke:#010101; stroke-miterlimit:10; stroke-width:3.63px;"/><path d="M392.35,303.78c1.42-.37,3.41-.84,5.8-1.24,.6-.1,6.97-1.15,14.01-.94,11.29,.34,31.95,4.17,46.18,6.32,21.31,3.21,27.34,2.52,33.16-.02,6.32-2.76,10.68-6.95,13.41-10.14" style="fill:none; stroke:#010101; stroke-miterlimit:10; stroke-width:3.63px;"/><path d="M379.77,207.86c6.51-.45,12.07-1.84,18.32-1.14,2.08,.69,2.78,3.47,3.47,5.56,8.33,23.61,15.97,46.53,16.91,71.72" style="fill:none; stroke:#010101; stroke-miterlimit:10; stroke-width:3.63px;"/><path d="M153.6,384.76c3.17,2.81,8.06,6.2,14.49,6.85,3.06,.31,4.03-.47,8.89-.62,6.67-.21,13.69,2.18,19.96,.35,7.34-2.15,11.29-9.33,14.34-16.02,3.37-7.41,4.21-9.29,7.04-14.71,9.84-18.87,27.7-25.11,25.84-29.69-.61-1.51-2.73-1.3-7.56-2.35,0,0-10.27-2.3-20.17-8.65-5.11-3.28-14.08-9.04-19.16-19.7-1.4-2.94-1.57-4.29-2.86-4.65-5.37-1.5-8.74,19.86-27.21,33.22-2.24,1.62-11.15,7.79-22.39,16.56-3.11,2.43-6.85,5.43-6.75,9.4,.1,4.1,4.25,6.97,5.82,7.95" style="fill:#a8a9ad; stroke:#010101; stroke-miterlimit:10; stroke-width:3.41px;"/><path d="M146.85,363.6c-.84-.15-2.26-.4-4.01-.69-6.95-1.15-13.82-2.88-20.83-3.61-1.98-.21-3.88-.59-5.61-1.98-1.56-1.26-2.38-3.69-1.21-5.32,1.26-1.76,3.87-1.64,6.02-1.33,10.43,1.5,20.86,3.01,31.29,4.51" style="fill:#fff; stroke:#010101; stroke-miterlimit:10; stroke-width:3.27px;"/><path d="M545.03,380.46c18.32,64.38,27.47,96.57,13.23,130.99-38.51,93.05-202.8,96.84-235.77,97.6-38.68,.89-195.45,4.51-228.24-69.63-52.27-118.17,223.27-404.88,346-355.7,55.1,22.09,80.81,112.46,104.79,196.73Z" style="fill:#a8a9ad; opacity:.15;"/><path d="M156.17,384.43c-1.15,.43-7.84,2.85-13.87-.34-.34-.18-4.49-2.48-6.01-6.08-1.1-2.6-.48-4.6,.13-6.52,.57-1.82,1.53-3.38,3.1-5.06,3.11-3.34,6.46-4.45,8.17-5.82,3.7-2.96,5.34-6.15,5.75-6.92,1.21-2.27,1.79-4.35,2.09-5.78" style="fill:#a8a9ad; stroke:#010101; stroke-miterlimit:10; stroke-width:2.82px;"/><path d="M101.12,367.25l-28.5-1.09,26.66-10.13-25.59-12.59,28.47,1.59-18.26-21.91,25.37,13.03-7.77-27.44,17.87,22.22,4.06-28.23,7.29,27.57,15.19-24.13c-1.52,9.38-3.04,18.77-4.55,28.15" style="fill:none; stroke:#e52629; stroke-miterlimit:10; stroke-width:3.18px;"/><polyline points="258.48 208.79 231.28 200.21 259.66 197.48 238.31 178.58 265.35 187.63 253.52 161.68 274.55 180.95 274.3 152.43 285.67 178.58 297.04 152.43 296.79 180.95 317.82 161.68 305.99 187.63" style="fill:none; stroke:#e52629; stroke-miterlimit:10; stroke-width:3.18px;"/><polyline points="502.16 279.4 513.53 253.24 513.28 281.76 534.31 262.49 522.48 288.44 549.52 279.4 528.17 298.29 556.55 301.02 529.35 309.6 554.17 323.64 525.84 320.41 542.8 343.34 518.23 328.87 524.4 356.71 507.84 333.49 502.16 361.43 496.47 333.49 479.91 356.71 486.08 328.87 461.51 343.34 478.48 320.41" style="fill:none; stroke:#e52629; stroke-miterlimit:10; stroke-width:3.18px;"/><path d="M474.48,151.4c4.35-4.18,8.71-8.36,13.06-12.54,20.29,8.07,54.04,24.52,86.24,56.86,34.82,34.98,51.3,71.96,58.9,92.96-4.71,4.1-9.41,8.19-14.12,12.29" style="fill:none; stroke:#e52629; stroke-miterlimit:10; stroke-width:10.06px;"/></svg>