<?xml version="1.0" encoding="UTF-8"?><svg id="Layer_1" xmlns="http://www.w3.org/2000/svg" viewBox="0 0 728.99 728.99"><path d="M536.77,626.89c-87.15,81.65-421.13-46.67-441.88-218.42-6.01-49.71,15.5-92.55,25.68-112.81,40.19-80.03,136.72-162.78,231.21-144.08,93.16,18.43,133.03,125.31,165.91,213.45,22.84,61.21,77.33,207.28,19.08,261.86Z" style="fill:#a8a9ad; opacity:.15;"/><path d="M97.15,359.04c-11.04,18.92-22.29,41.12-32.34,66.57-18.17,46.03-26.67,88.18-30.67,121.75" style="fill:none; stroke:#010101; stroke-miterlimit:10; stroke-width:1.44px;"/><path d="M209.91,421.62c-8.87,27.86-17.17,61.02-22.42,98.79-3.54,25.48-5.15,49.15-5.56,70.53" style="fill:none; stroke:#010101; stroke-miterlimit:10; stroke-width:1.44px;"/><path d="M347.3,493.47c-5.67,20.41-12.29,41.84-20.04,64.09-9.32,26.73-19.19,51.54-29.17,74.38" style="fill:none; stroke:#010101; stroke-miterlimit:10; stroke-width:1.44px;"/><path d="M209.91,421.62c-7.2,28.56-16.84,59.95-29.86,93.21-8.32,21.24-17.09,40.89-25.94,58.92" style="fill:none; stroke:#010101; stroke-miterlimit:10; stroke-width:1.44px;"/><path d="M193.53,412.98c2.32,2.17,7.85,6.76,16.38,8.64,9.42,2.07,17.01-.37,19.96-1.49" style="fill:none; stroke:#010101; stroke-miterlimit:10; stroke-width:1.44px;"/><path d="M253.53,388.9c-3.66-1.44-7.32-2.88-10.98-4.33-1.26-.5-2.53-1-3.7-1.69-.64-.38-1.26-.83-1.66-1.46-.4-.63-.55-1.46-.21-2.12,.44-.85,1.48-1.17,2.41-1.4,3.66-.91,7.34-1.82,11.09-2.23" style="fill:#fff; stroke:#010101; stroke-miterlimit:10; stroke-width:1.44px;"/><path d="M294.87,390.82c11.48,.9,22.97,1.8,34.45,2.69,4.59,.36,9.19,.72,13.8,.59,.87-.02,1.94-.2,2.24-1.02,.15-.42,.04-.88-.07-1.31-.41-1.58-.81-3.17-1.22-4.75-.15-.57-.3-1.15-.62-1.64-.83-1.25-2.5-1.57-3.98-1.77-20.02-2.69-40.26-3.94-60.09-7.84" style="fill:#fff; stroke:#010101; stroke-miterlimit:10; stroke-width:1.44px;"/><path d="M328.24,478.36c40.17,29.79,73.47,68.72,116.43,94.33,4.6,2.74,9.48,5.38,14.82,5.78,12.5,.93,22.4-10.41,28.11-21.58,9.04-17.68,13.25-37.8,12.07-57.62" style="fill:none; stroke:#010101; stroke-miterlimit:10; stroke-width:1.44px;"/><path d="M357.98,445.73c14.47,13.36,30.57,24.96,47.83,34.46" style="fill:none; stroke:#010101; stroke-miterlimit:10; stroke-width:1.44px;"/><path d="M415.21,370.46c-.94,31.9-3.42,65.37-7.92,100.19-.9,6.98-1.87,13.89-2.9,20.71,12.38,7.76,23.2,10.87,30.25,12.28,17.08,3.43,32.17,.97,55.14-2.77,7.98-1.3,14.46-2.65,18.68-3.58,.65-4.58,1.28-9.17,1.9-13.79,3.63-27.13,6.55-53.8,8.85-79.97" style="fill:none; stroke:#010101; stroke-miterlimit:10; stroke-width:1.44px;"/><path d="M368.46,453.83c-5.19-51.6,7.54-105.3,37.69-147.49,12.16-17.01,26.9-31.99,40.09-48.22,13.19-16.23,25.04-34.18,30-54.49" style="fill:none; stroke:#010101; stroke-miterlimit:10; stroke-width:1.44px;"/><path d="M395.48,343.34c5.37-3.46,10.74-6.92,16.11-10.39-.53-5.09-1.06-10.18-1.59-15.28,7.9-.8,15.79-1.6,23.69-2.4,9.35-10.7,16.93-20,22.53-27.07,3.14-3.96,16.35-20.81,28.77-44.11,4.1-7.7,5.85-11.85,5.45-17.18-.98-13.12-14.05-21.7-18.64-24.45" style="fill:none; stroke:#010101; stroke-miterlimit:10; stroke-width:1.44px;"/><path d="M367.18,434.9c-3.22-16.96-5.45-39.13-2.82-64.7,5.66-55.19,30.71-94.76,45.12-114.12" style="fill:none; stroke:#010101; stroke-miterlimit:10; stroke-width:1.44px;"/><path d="M318.7,203.08c4.3,14.02,9.85,27.95,19.07,39.35,9.23,11.4,22.61,20.09,37.25,20.95,11.44,.67,22.58-3.37,33.15-7.79,.67-.28,1.35-.57,1.88-1.06,1.15-1.08,1.3-2.82,1.3-4.39,.03-7.27-1.44-14.55-4.29-21.24-.25-.58-.52-1.18-1.03-1.57-1.49-1.14-3.52,.31-4.89,1.58-3.94,3.66-10.1,6.55-14.47,3.41-1.15-.83-2.02-1.99-2.86-3.13-5.12-6.91-10.24-13.82-15.36-20.73-1.17-1.58-2.38-3.2-4.05-4.25-3.4-2.13-7.77-1.41-11.75-.86-11.26,1.57-22.79,1.17-33.9-1.19-.11,.86-.21,1.72-.06,.94Z" style="fill:none; stroke:#010101; stroke-miterlimit:10; stroke-width:1.44px;"/><path d="M365.84,204.21c11.31-12.04,21.85-24.8,31.53-38.18" style="fill:none; stroke:#010101; stroke-miterlimit:10; stroke-width:1.44px;"/><path d="M403.17,227.94c4.36-10.84,9.32-21.45,14.82-31.75" style="fill:none; stroke:#010101; stroke-miterlimit:10; stroke-width:1.44px;"/><path d="M411.15,250.97c5.15,13.63,7.15,28.45,5.79,42.96" style="fill:none; stroke:#010101; stroke-miterlimit:10; stroke-width:1.44px;"/><path d="M323.27,202.2c-4.82-19.26-13.33-37.47-17.87-56.8-4.54-19.33-4.62-41.01,6.36-57.55,3.72-5.6,8.54-10.37,13.49-14.92,13.02-11.96,27.46-22.84,44.09-28.84,16.63-6,35.78-6.66,51.57,1.29,5.64,2.84,10.7,6.67,15.69,10.53,15.49,12,31.63,26.29,34.09,45.2,14.88-4.07,31.21,3.02,41.41,14.6,10.2,11.58,15.13,26.89,17.77,42.09,7.52,43.33-1.36,89.56,14.53,130.56-10.24-14.59-20.48-29.18-30.71-43.76-3.87-5.51-7.75-11.04-10.94-16.97-5.92-11.01-9.36-23.34-10.01-35.82-.98-18.83,4.25-38.25-1.29-56.27-1.95-6.35-5.51-12.6-11.36-15.75-1.82-.98-4.05-1.63-5.93-.77-2.77,1.26-3.32,4.93-3.1,7.96,.63,8.8,4.46,17.13,5.16,25.92,.76,9.59-2.22,19.03-4.08,28.47-1.86,9.44-2.46,19.86,2.54,28.08" style="fill:none; stroke:#010101; stroke-miterlimit:10; stroke-width:1.44px;"/><path d="M490.44,226.91c32.74,40.72,48.85,77.44,57.51,103.78,12.96,39.38,8.97,51.14,25.25,96.36,10.27,28.54,26.09,54.76,37.49,82.87,11.4,28.11,18.27,59.65,9.64,88.73-3.14,10.58-8.25,20.48-13.91,29.95-8.26,13.82-18.11,27.19-31.65,35.9-6.34,4.08-12.5,6.96-23.35,10.59-15.42,5.16-38.51,11.39-68.92,14.4" style="fill:none; stroke:#010101; stroke-miterlimit:10; stroke-width:1.44px;"/><path d="M395.14,535.41c2.29,32.71,1.39,65.65-2.67,98.19" style="fill:none; stroke:#010101; stroke-miterlimit:10; stroke-width:1.44px;"/><path d="M355.8,446.09c2.17-.66,2.84-3.41,1.14-4.91-15.54-13.69-31.64-26.76-48.24-39.15-6.36-4.75-12.83-9.43-18.53-14.96-4.39-4.26-8.3-8.99-12.82-13.11-4.52-4.11-9.81-7.65-15.8-8.86-2.7-.54-5.61-.58-8.1,.61-2.49,1.19-4.41,3.81-4.16,6.55,.16,1.76,1.15,3.31,2.08,4.81,1.88,3.02,3.71,6.37,3.4,9.92-.22,2.58-1.56,4.94-1.96,7.5-.88,5.62,2.81,10.85,4.03,16.4,.6,2.73,.61,5.56,1.13,8.31,1.1,5.71,4.43,10.79,8.5,14.93,4.58,4.65,8,6.98,13.65,10.81,22.44,15.19,33.66,22.78,39.75,30.67,.9,1.16,3.36,4.49,5.51,3.98,2-.48,2.39-3.97,3.23-6.58,4.15-12.98,12.42-22.43,27.18-26.92Z" style="fill:#a8a9ad; stroke:#010101; stroke-miterlimit:10; stroke-width:1.44px;"/><path d="M556.75,215.53c7.34-2.28,14.67-4.56,22.01-6.84,38.7,121.81,77.4,243.62,116.1,365.43-7.74,1.82-15.49,3.64-23.23,5.45" style="fill:none; stroke:#3f4b9b; stroke-miterlimit:10; stroke-width:4.8px;"/><path d="M381.26,539.04c-3.8,4.9-7.61,9.8-11.41,14.71-42.11-32.46-84.21-64.91-126.32-97.37,4.11-4.92,8.22-9.84,12.34-14.75" style="fill:none; stroke:#3f4b9b; stroke-miterlimit:10; stroke-width:2.79px;"/></svg>