<?xml version="1.0" encoding="UTF-8"?><svg id="Layer_2" xmlns="http://www.w3.org/2000/svg" viewBox="0 0 134 142.83"><g id="Layer_1-2"><g><path d="M108.29,117.81c-12.15,15.52-87.86-5.81-89.96-35.48-1.53-21.63,35.95-49.11,56.07-41.15,6.77,2.68,10.78,10.57,18.5,26.24,13.03,26.42,21.2,42.98,15.39,50.4Z" style="fill:#a7a8ad; opacity:.15;"/><path d="M1.31,63.94c.77-.28,1.52-.58,2.33-.7,.26-.04,.54-.04,.8-.07,1.27-.18,2.05-.18,2.15-.19,1.91-.16,10.28,1.44,14.19,3.29,0,0,1.16,.55,3.04,.82,.28,.04,.66,.06,1.14-.02,.85-.15,1.96-.65,2.01-1.31,0-.15-.04-.25-.09-.37-.36-.89-.36-1.76-.37-2.36,0-.97,.24-1.7,.39-2.13,.15-.43,.34-.96,.68-1.26,.32-.28,.59-.46,.94-.64,.8-.41,1.49-.49,1.66-.51,.49-.05,.52,.04,1.11,.03,.96-.01,1.69-.22,2.15-.36,.85-.25,1.49-.54,1.86-.77,.57-.35,1.07-.75,1.71-.97,.59-.2,1.45-.27,2.05-.08,.7,.22,1.03,1.01,1.61,1.35,.55,.34,1.36,.34,1.98,.3,.83-.05,1.67-.06,2.51,.05,0,0,1.21,.05,2.52,.32,2.24,.45,5.69,2.29,6.97,5.57,.5,1.29,.62,2.56,.6,3.07-.03,.97,.03,2.04-.28,2.97-.13,.39-.49,1.49-1.4,2.59-1.43,1.73-3.28,2.37-5.21,3.05-.48,.17-.85,.27-1.14,.33-.77,.17-1.55,.25-2.37,.25-1.15,0-2.29-.08-3.45-.04-.79,.03-1.56,.05-2.33,.22-.55,.12-1.2,.07-1.18,.79,0,.32,.1,.69,.17,1.01,.08,.4,.16,.58,.17,.63,.4,1.18,3.21,1.78,3.67,1.88,.2,.04,.99,.21,2.08,.28,.83,.05,1.53,.03,2.88-.07,2.38-.18,3.66-.28,5.43-.59,.88-.15,1.42-.28,2.39-.35,.48-.03,1.36-.07,2.46,0,.65,.05,1.2,.13,1.64,.2" style="fill:none; stroke:#000; stroke-miterlimit:10; stroke-width:.73px;"/><path d="M47.54,96.07c-6.4,1.18-11.36,.42-11.36,.42-2.82-.43-5.04-1.21-6.01-1.56-4.14-1.48-3.71-2.23-5.66-2.46-1.11-.13-5.13,.88-10.41,2.82" style="fill:none; stroke:#000; stroke-miterlimit:10; stroke-width:.73px;"/><path d="M47.59,75.84c4.53,.9,7.94,1.47,10.28,1.82,.79,.12,2.58,.36,4.87,.99,2.35,.64,4.17,1.42,5.16,1.84,1.75,.74,2.62,1.11,3.32,1.59,.28,.19,4.29,2.99,3.84,5.95-.04,.25-.16,1.06-.83,1.72-.72,.71-1.64,.8-1.94,.82" style="fill:none; stroke:#000; stroke-miterlimit:10; stroke-width:.73px;"/><path d="M41.79,76.06c.46,.95,1.49,2.7,3.51,3.92,.69,.42,1.36,.69,1.94,.87" style="fill:none; stroke:#000; stroke-miterlimit:10; stroke-width:.73px;"/><path d="M29.2,87.27c-.24,.58-.06,1.26,.25,1.81,.32,.55,.76,1.01,1.11,1.54,.78,1.18,1.09,2.69,2.15,3.63,1.24,1.1,3.08,1.08,4.73,.94,1.22-.1,2.44-.23,3.66-.24,3.58-.02,7.16,1.01,10.23,3.02,.1-1.62,.21-3.28,.84-4.79,.19-.46,.43-.89,.67-1.33,.78-1.39,1.63-2.74,2.9-3.97-3.77-1.99-8.05-2.71-12.18-3.75-1.22-.31-2.44-.66-3.51-1.31-1.4-.86-2.53-2.25-4.13-2.65-.84-.21-1.73-.11-2.59-.25-.48-.08-.62-.18-1.67-.44-.87-.22-1.3-.33-1.82-.41-1.26-.2-1.89-.3-2.34,.08-.37,.32-.56,.92-.4,1.39,.1,.31,.32,.48,.6,.69,.29,.22,.84,.57,1.66,.74" style="fill:#a7a8ad; stroke:#000; stroke-miterlimit:10; stroke-width:.73px;"/><path d="M30.97,87.26c-.69-.09-1.72-.27-2.9-.73-1.47-.56-2.72-1.04-2.92-2.06-.14-.73,.3-1.46,.7-1.85,.52-.51,1.13-.6,1.73-.7,.56-.09,1.11-.08,1.79,.04,1.34,.24,2.13,.77,2.74,.95,1.45,.43,3.02,.47,4.5,.12" style="fill:#a7a8ad; stroke:#000; stroke-miterlimit:10; stroke-width:.73px;"/><path d="M32.57,83.09c-.06-.18-.17-.49-.31-.86-.55-1.49-.97-3.02-1.61-4.48-.18-.41-.32-.83-.24-1.32,.07-.45,.46-.88,.91-.83,.49,.05,.75,.58,.93,1.03,.86,2.21,1.73,4.42,2.59,6.63" style="fill:#fff; stroke:#000; stroke-miterlimit:10; stroke-width:.73px;"/><path d="M51.67,96.67c11.28,3.39,22.55,6.78,33.83,10.17,.54,.16,1.14,.32,1.65,.07,.37-.18,.61-.54,.83-.88,3.91-6.12,6.47-13.1,7.47-20.3" style="fill:none; stroke:#000; stroke-miterlimit:10; stroke-width:.73px;"/><path d="M54.83,88.89c7.42,.73,14.83,1.43,22.25,2.13,.11,.01,.23,.02,.32-.03,.14-.08,.18-.25,.21-.4,.3-1.45,.6-2.89,.89-4.34" style="fill:none; stroke:#000; stroke-miterlimit:10; stroke-width:.73px;"/><path d="M78.43,71.11c-.2,2.12-.35,4.36-.43,6.71-.1,2.98-.08,5.8,.02,8.44,7.79-.63,15.77,.53,23.26-1.17,.66-2.42,1.26-5.04,1.74-7.85,1.13-6.6,1.33-12.58,1.12-17.64" style="fill:none; stroke:#000; stroke-miterlimit:10; stroke-width:.73px;"/><path d="M67.65,80.3c-2.23-8.07-1.4-14.18-.61-17.56,.78-3.36,2.39-10.23,7.73-16.18,2.55-2.84,5.91-5.41,6.67-10.16,.27-1.73,.12-3.22-.06-4.21" style="fill:none; stroke:#000; stroke-miterlimit:10; stroke-width:.73px;"/><path d="M69.32,67.31c.86-2.18,2.09-4.71,3.87-7.33,.82-1.21,1.65-2.29,2.47-3.24-.41-.99-.83-1.97-1.24-2.96,.94-.51,1.89-1.02,2.83-1.52,.97-.99,2.29-2.44,3.65-4.35,1.81-2.53,2.95-4.16,3.42-6.6,.58-2.98-.21-5.16-.42-5.69-.28-.71-1.32-3.39-3.05-3.48-.41-.02-.77,.11-1.02,.24" style="fill:none; stroke:#000; stroke-miterlimit:10; stroke-width:.73px;"/><path d="M84.52,38.27c2.05,.55,5.13,1.63,8.31,3.87,1.72,1.21,4.55,3.53,7.35,7.93,4.09,6.45,4.04,11.38,6.15,18.62,2.02,6.92,4.74,13.62,8.12,19.99,4.39,8.28,10.03,16.44,10.5,25.8,.1,1.94-.06,3.96-.96,5.68-.41,.79-.97,1.49-1.54,2.18-4.5,5.48-7.19,7.84-10.39,9.45-5.35,2.69-10.65,2.52-13.58,2.16" style="fill:none; stroke:#000; stroke-miterlimit:10; stroke-width:.73px;"/><path d="M68.65,44.87c.8,.74,1.21,1.83,1.33,2.91,.11,1.06,.06,1.83-.17,3.26-.16,1.01-.43,2.69-.79,4.99" style="fill:none; stroke:#000; stroke-miterlimit:10; stroke-width:.73px;"/><path d="M64.97,79.32c-1.26-5.64-2.38-14.44-.07-24.6,.83-3.64,1.96-6.84,3.15-9.57" style="fill:none; stroke:#000; stroke-miterlimit:10; stroke-width:.73px;"/><path d="M60.25,29.96c-3.61,1.69-7.23,3.38-10.84,5.07-.17,.08-.37,.18-.42,.37-.05,.15,.01,.31,.07,.46,1.49,3.55,4.31,6.52,7.78,8.2s7.55,2.04,11.26,1c.32-.09,.65-.2,.86-.45,.21-.25,.26-.6,.29-.93,.31-3,.11-6.05-.58-8.98-1.12,1.55-3.57,1.52-5.16,.45s-2.51-2.85-3.37-4.55c-.14-.29-.22-.74,.1-.63Z" style="fill:none; stroke:#000; stroke-miterlimit:10; stroke-width:.73px;"/><path d="M67.21,18.8c-2.49,3.97-4.81,8.04-6.94,12.21" style="fill:none; stroke:#000; stroke-miterlimit:10; stroke-width:.73px;"/><path d="M71.21,27.09c-.38,.85-.69,1.74-1.01,2.62-.65,1.82-1.3,3.64-1.94,5.45" style="fill:none; stroke:#000; stroke-miterlimit:10; stroke-width:.73px;"/><path d="M78.7,20.05c.01,.39,.01,.78,0,1.17-.06,1.73-.4,3.46-.34,5.19,.11,3.35,1.64,6.47,3.13,9.47" style="fill:none; stroke:#000; stroke-miterlimit:10; stroke-width:.73px;"/><path d="M50.09,34.52c-1.54-5.46-5.63-10.07-6.39-15.69-.64-4.71,1.3-9.6,4.69-12.93,3.39-3.34,8.1-5.17,12.84-5.48,2.24-.15,4.56,.04,6.57,1.05,1.7,.85,3.07,2.24,4.31,3.69,2.59,3.03,4.78,6.57,5.86,10.37" style="fill:none; stroke:#000; stroke-miterlimit:10; stroke-width:.73px;"/><path d="M78.48,19.72c.66,.31,1.71,.88,2.69,1.9,3.73,3.88,1.55,9.07,4.82,14.53,.66,1.1,1.81,2.66,3.88,4.19" style="fill:none; stroke:#000; stroke-miterlimit:10; stroke-width:.73px;"/><path d="M92.84,42.14c-3.41-5.06-2.83-11.69-3.85-17.7-.35-2.04-.9-4.08-1.96-5.86-.74-1.26-2.08-3.35-4.61-3.98-2.17-.55-4.06,.29-4.76,.65" style="fill:none; stroke:#000; stroke-miterlimit:10; stroke-width:.73px;"/><path d="M101.46,39.06c1.12-.48,2.25-.97,3.37-1.45,9.14,20.81,18.27,41.63,27.41,62.44-1.2,.41-2.4,.82-3.6,1.22" style="fill:none; stroke:#4620ff; stroke-miterlimit:10; stroke-width:2.59px;"/><path d="M62.16,103.34c-.17,.97-.34,1.95-.51,2.92-8.34-1.43-16.69-2.86-25.03-4.29,.21-1,.42-2,.64-3" style="fill:none; stroke:#4620ff; stroke-miterlimit:10; stroke-width:1.42px;"/><g><path d="M16.77,24.8l2.86-4.2h-2.37l-1.78,2.8-1.77-2.8h-2.44l2.84,4.2-1.68,2.49h-2.83v-6.7h-2.03v8.19l-1.8-2.63c1.03-.45,1.59-1.37,1.59-2.64,0-1.85-1.17-2.91-3.2-2.91H.52v8.6H2.55v-2.76h1.14l1.74,2.76H13.51l1.92-3.01,1.89,3.01h2.44l-2.98-4.4Zm-12.59-.28h-1.63v-2h1.63c.78,0,1.13,.31,1.13,1s-.36,1.01-1.13,1.01Z" style="fill:#303030;"/><g><path d="M21.28,22.37c-.38,0-.75,.09-1.07,.25l2,2.82-1.25,1.77c.1,.01,.21,.02,.32,.02,1.34,0,2.43-1.09,2.43-2.43s-1.09-2.43-2.43-2.43Z" style="fill:#a7a8ad;"/><path d="M19.87,22.82c-.62,.44-1.03,1.16-1.03,1.98,0,1.09,.71,2.01,1.7,2.32l1.19-1.68-1.86-2.62Z" style="fill:#a7a8ad;"/></g></g><circle cx="15.2" cy="127.63" r="15.2" style="fill:#303030;"/><text transform="translate(5.13 126.55)" style="fill:#fff; font-family:Rubik-MediumItalic, Rubik; font-size:6.9px; font-style:italic; font-weight:500;"><tspan x="0" y="0" style="letter-spacing:0em;">U</tspan><tspan x="4.9" y="0" style="letter-spacing:0em;">nde</tspan><tspan x="17.39" y="0" style="letter-spacing:-.02em;">r</tspan><tspan x="3.1" y="8.28">Arm</tspan></text></g></g></svg>