<?xml version="1.0" encoding="UTF-8"?><svg id="Layer_2" xmlns="http://www.w3.org/2000/svg" viewBox="0 0 127.64 135.14"><g id="Layer_2-2"><g><path d="M96.32,109.98c-16.25,15.23-78.54-8.7-82.41-40.74-1.12-9.27,2.89-17.26,4.79-21.04,7.5-14.93,25.5-30.36,43.12-26.87,17.37,3.44,24.81,23.37,30.94,39.81,4.26,11.42,14.42,38.66,3.56,48.84Z" style="fill:#a7a8ad; opacity:.15;"/><g><path d="M21.59,17.11l2.86-4.2h-2.37l-1.78,2.8-1.77-2.8h-2.44l2.84,4.2-1.68,2.49h-2.83v-6.7h-2.03v8.19l-1.8-2.63c1.03-.45,1.59-1.37,1.59-2.64,0-1.85-1.17-2.91-3.2-2.91h-3.64v8.6h2.03v-2.76h1.14l1.74,2.76h8.08l1.92-3.01,1.89,3.01h2.44l-2.98-4.4Zm-12.59-.28h-1.63v-2h1.63c.78,0,1.13,.31,1.13,1s-.36,1.01-1.13,1.01Z" style="fill:#303030;"/><g><path d="M26.1,14.68c-.38,0-.75,.09-1.07,.25l2,2.82-1.25,1.77c.1,.01,.21,.02,.32,.02,1.34,0,2.43-1.09,2.43-2.43s-1.09-2.43-2.43-2.43Z" style="fill:#a7a8ad;"/><path d="M24.69,15.13c-.62,.44-1.03,1.16-1.03,1.98,0,1.09,.71,2.01,1.7,2.32l1.19-1.68-1.86-2.62Z" style="fill:#a7a8ad;"/></g></g><path d="M12.55,59.34c-4.05,13.16-8.09,26.33-12.14,39.49" style="fill:none; stroke:#000; stroke-miterlimit:10; stroke-width:.86px;"/><path d="M35.36,71.7c-1.74,10.53-3.48,21.05-5.22,31.58" style="fill:none; stroke:#000; stroke-miterlimit:10; stroke-width:.86px;"/><path d="M60.99,85.1c-.98,3.1-2.26,7.17-3.74,11.95-.76,2.45-1.85,6.03-3.18,10.56-1.2,4.08-2.72,9.39-4.42,15.66" style="fill:none; stroke:#000; stroke-miterlimit:10; stroke-width:.86px;"/><path d="M35.36,71.7c-3.47,9.46-6.94,18.92-10.41,28.37" style="fill:none; stroke:#000; stroke-miterlimit:10; stroke-width:.86px;"/><path d="M32.31,70.09c.43,.41,1.46,1.26,3.06,1.61,1.76,.39,3.17-.07,3.72-.28" style="fill:none; stroke:#000; stroke-miterlimit:10; stroke-width:.86px;"/><path d="M43.5,65.59l-2.05-.81c-.24-.09-.47-.19-.69-.32-.12-.07-.24-.16-.31-.27s-.1-.27-.04-.4c.08-.16,.28-.22,.45-.26,.68-.17,1.37-.34,2.07-.42" style="fill:#fff; stroke:#000; stroke-miterlimit:10; stroke-width:.86px;"/><path d="M51.21,65.95l6.43,.5c.86,.07,1.71,.13,2.57,.11,.16,0,.36-.04,.42-.19,.03-.08,0-.16-.01-.24-.08-.3-.15-.59-.23-.89-.03-.11-.06-.21-.12-.31-.15-.23-.47-.29-.74-.33-3.73-.5-7.51-.74-11.21-1.46" style="fill:#fff; stroke:#000; stroke-miterlimit:10; stroke-width:.86px;"/><path d="M57.43,82.28c7.49,5.56,13.7,12.82,21.71,17.59,.86,.51,1.77,1,2.76,1.08,2.33,.17,4.18-1.94,5.24-4.02,1.69-3.3,2.47-7.05,2.25-10.75" style="fill:none; stroke:#000; stroke-miterlimit:10; stroke-width:.86px;"/><path d="M62.98,76.19c2.7,2.49,5.7,4.66,8.92,6.43" style="fill:none; stroke:#000; stroke-miterlimit:10; stroke-width:.86px;"/><path d="M73.65,62.16c-.17,5.95-.64,12.19-1.48,18.69-.17,1.3-.35,2.59-.54,3.86,2.31,1.45,4.33,2.03,5.64,2.29,3.19,.64,6,.18,10.28-.52,1.49-.24,2.7-.49,3.48-.67,.12-.85,.24-1.71,.35-2.57,.68-5.06,1.22-10.03,1.65-14.92" style="fill:none; stroke:#000; stroke-miterlimit:10; stroke-width:.86px;"/><path d="M64.93,77.7c-.97-9.62,1.41-19.64,7.03-27.51,2.27-3.17,5.02-5.97,7.48-8.99s4.67-6.37,5.59-10.16" style="fill:none; stroke:#000; stroke-miterlimit:10; stroke-width:.86px;"/><path d="M69.97,57.1c1-.65,2-1.29,3-1.94-.1-.95-.2-1.9-.3-2.85,1.47-.15,2.95-.3,4.42-.45,1.74-2,3.16-3.73,4.2-5.05,.58-.74,3.05-3.88,5.37-8.23,.77-1.44,1.09-2.21,1.02-3.2-.18-2.45-2.62-4.05-3.48-4.56" style="fill:none; stroke:#000; stroke-miterlimit:10; stroke-width:.86px;"/><path d="M64.7,74.17c-.6-3.16-1.02-7.3-.53-12.07,1.06-10.29,5.73-17.67,8.42-21.28" style="fill:none; stroke:#000; stroke-miterlimit:10; stroke-width:.86px;"/><path d="M55.65,30.94c.8,2.62,1.84,5.21,3.56,7.34s4.22,3.75,6.95,3.91c2.13,.12,4.21-.63,6.18-1.45,.12-.05,.25-.11,.35-.2,.21-.2,.24-.53,.24-.82,0-1.36-.27-2.71-.8-3.96-.05-.11-.1-.22-.19-.29-.28-.21-.66,.06-.91,.3-.73,.68-1.88,1.22-2.7,.64-.22-.15-.38-.37-.53-.58-.95-1.29-1.91-2.58-2.86-3.87-.22-.29-.44-.6-.76-.79-.63-.4-1.45-.26-2.19-.16-2.1,.29-4.25,.22-6.32-.22-.02,.16-.04,.32-.01,.17Z" style="fill:none; stroke:#000; stroke-miterlimit:10; stroke-width:.86px;"/><path d="M64.45,31.15c2.11-2.25,4.07-4.63,5.88-7.12" style="fill:none; stroke:#000; stroke-miterlimit:10; stroke-width:.86px;"/><path d="M71.41,35.57c.81-2.02,1.74-4,2.76-5.92" style="fill:none; stroke:#000; stroke-miterlimit:10; stroke-width:.86px;"/><path d="M72.9,39.87c.96,2.54,1.33,5.31,1.08,8.01" style="fill:none; stroke:#000; stroke-miterlimit:10; stroke-width:.86px;"/><path d="M56.51,30.77c-.9-3.59-2.49-6.99-3.33-10.59s-.86-7.65,1.19-10.73c.69-1.04,1.59-1.93,2.52-2.78,2.43-2.23,5.12-4.26,8.22-5.38s6.67-1.24,9.62,.24c1.05,.53,2,1.24,2.93,1.96,2.89,2.24,5.9,4.9,6.36,8.43,2.77-.76,5.82,.56,7.72,2.72s2.82,5.01,3.31,7.85c1.4,8.08-.25,16.7,2.71,24.35-1.91-2.72-3.82-5.44-5.73-8.16-.72-1.03-1.44-2.06-2.04-3.17-1.1-2.05-1.75-4.35-1.87-6.68-.18-3.51,.79-7.13-.24-10.5-.36-1.18-1.03-2.35-2.12-2.94-.34-.18-.75-.3-1.11-.14-.52,.23-.62,.92-.58,1.48,.12,1.64,.83,3.19,.96,4.83,.14,1.79-.41,3.55-.76,5.31-.35,1.76-.46,3.7,.47,5.24" style="fill:none; stroke:#000; stroke-miterlimit:10; stroke-width:.86px;"/><path d="M87.68,35.38c6.11,7.59,9.11,14.44,10.73,19.35,2.42,7.34,1.67,9.54,4.71,17.97,1.92,5.32,4.87,10.21,6.99,15.46,2.13,5.24,3.41,11.13,1.8,16.55-.59,1.97-1.54,3.82-2.59,5.59-1.54,2.58-3.38,5.07-5.9,6.7-1.18,.76-2.33,1.3-4.35,1.97-2.88,.96-7.18,2.12-12.85,2.69" style="fill:none; stroke:#000; stroke-miterlimit:10; stroke-width:.86px;"/><path d="M69.91,92.92c.43,6.1,.26,12.24-.5,18.31" style="fill:none; stroke:#000; stroke-miterlimit:10; stroke-width:.86px;"/><path d="M63.57,76.04c-3.14-2.81-6.4-5.48-9.78-8-1.19-.89-2.39-1.76-3.46-2.79-.82-.79-1.55-1.68-2.39-2.44s-1.83-1.43-2.95-1.65c-.5-.1-1.05-.11-1.51,.11s-.82,.71-.78,1.22c.03,.33,.21,.62,.39,.9,.35,.56,.69,1.19,.63,1.85-.04,.48-.29,.92-.37,1.4-.16,1.05,.52,2.02,.75,3.06,.11,.51,.11,1.04,.21,1.55,.2,1.06,.83,2.01,1.59,2.78,.76,.77,1.66,1.39,2.55,2.02,3.04,2.15,6,4.42,8.97,6.98-.2-.56-.1-1.18,.08-1.74,.84-2.74,3.4-4.87,6.06-5.24Z" style="fill:#a7a8ad; stroke:#000; stroke-miterlimit:10; stroke-width:.86px;"/><circle cx="18.87" cy="119.93" r="15.2" transform="translate(-99.15 91.47) rotate(-67.5)" style="fill:#303030;"/><text transform="translate(9.43 118.86)" style="fill:#fff; font-family:Rubik-MediumItalic, Rubik; font-size:6.9px; font-style:italic; font-weight:500;"><tspan x="0" y="0">Bikini</tspan><tspan x="2.14" y="8.28">Line</tspan></text><path d="M100.05,33.26c1.37-.43,2.74-.85,4.1-1.28,7.22,22.72,14.44,45.44,21.65,68.15-1.44,.34-2.89,.68-4.33,1.02" style="fill:none; stroke:#4620ff; stroke-miterlimit:10; stroke-width:2.87px;"/><path d="M67.32,93.6c-.71,.91-1.42,1.83-2.13,2.74-7.85-6.05-15.71-12.11-23.56-18.16,.77-.92,1.53-1.83,2.3-2.75" style="fill:none; stroke:#4620ff; stroke-miterlimit:10; stroke-width:1.66px;"/></g></g></svg>