<?xml version="1.0" encoding="UTF-8"?><svg id="Layer_2" xmlns="http://www.w3.org/2000/svg" viewBox="0 0 144.82 141.29"><g id="Layer_2-2"><g><path d="M111.19,67.57c7.6,27.36,10.4,34.84,5.54,42.83-7.58,12.47-26.02,13.4-27.45,13.46-11.28,.42-19.73-4.63-26-8.38-6.57-3.92-10.19-7.62-17.6-15.04-28.4-28.46-29.77-28.97-30.31-32.87-2.44-17.66,22.05-34.01,31.12-40.06,11.11-7.41,31.01-20.69,45.48-13.46,7.23,3.62,6.92,9.26,19.22,53.52Z" style="fill:#a7a8ad; opacity:.15;"/><g><path d="M25.42,23.27l2.86-4.2h-2.37l-1.78,2.8-1.77-2.8h-2.44l2.84,4.2-1.68,2.49h-2.83v-6.7h-2.03v8.19l-1.8-2.63c1.03-.45,1.59-1.37,1.59-2.64,0-1.85-1.17-2.91-3.2-2.91h-3.64v8.6h2.03v-2.76h1.14l1.74,2.76h8.08l1.92-3.01,1.89,3.01h2.44l-2.98-4.4Zm-12.59-.28h-1.63v-2h1.63c.78,0,1.13,.31,1.13,1s-.36,1.01-1.13,1.01Z" style="fill:#303030;"/><g><path d="M29.93,20.83c-.38,0-.75,.09-1.07,.25l2,2.82-1.25,1.77c.1,.01,.21,.02,.32,.02,1.34,0,2.43-1.09,2.43-2.43s-1.09-2.43-2.43-2.43Z" style="fill:#a7a8ad;"/><path d="M28.52,21.28c-.62,.44-1.03,1.16-1.03,1.98,0,1.09,.71,2.01,1.7,2.32l1.19-1.68-1.86-2.62Z" style="fill:#a7a8ad;"/></g></g><path d="M81.01,72.42c-.92,1.38-2.03,2.6-3.32,3.59-2.97,2.27-6.74,3.77-8.64,6.99-1.68,2.84-1.5,6.37-1.46,9.67,.1,8.53-1.12,17.08-3.6,25.25" style="fill:none; stroke:#000; stroke-miterlimit:10; stroke-width:.86px;"/><path d="M78.79,50.83c.41,.19,.87,.43,1.35,.75" style="fill:none; stroke:#000; stroke-miterlimit:10; stroke-width:.86px;"/><path d="M6.98,80.24c9.81-14.56,22.91-26.89,38.05-35.79,2.54-1.5,5.16-2.9,7.96-3.84,6.83-2.28,14.61-1.51,20.86,2.05,1.99,1.14,3.33,2.12,4.16,3.68,1.58,2.94,.68,6.14,.33,7.2" style="fill:none; stroke:#000; stroke-miterlimit:10; stroke-width:.86px;"/><path d="M11.52,88.12c6.52-1.98,13.87-4.68,21.67-8.42,11.59-5.56,20.94-11.86,28.12-17.5" style="fill:none; stroke:#000; stroke-miterlimit:10; stroke-width:.86px;"/><path d="M69.13,129.8c.45-.55,.86-1.12,1.22-1.73,.74-1.26,2.01-3.92,1.06-6.34-1.01-2.55-4.3-4.15-8.11-3.95" style="fill:none; stroke:#000; stroke-miterlimit:10; stroke-width:.86px;"/><path d="M47.98,71.56c-.9,7.37-1.1,13.39-1.11,17.48-.05,15.85,2.53,23.62-1.14,34.78-1.39,4.24-3.2,7.47-4.44,9.46" style="fill:none; stroke:#000; stroke-miterlimit:10; stroke-width:.86px;"/><path d="M53.92,69.02c-.15-.05-.27-.48,1.58-7.68,.58-2.27,.92-3.48,2.03-4.48,.71-.64,1.63-1.02,2.28-1.7,.63-.66,1.13-1.65,2.05-1.71,.72-.04,1.32,.58,1.61,1.24,.29,.66,.37,1.4,.66,2.06,.58,1.31,1.93,2.25,2.2,3.66,.41,2.11-1.76,3.88-1.96,6.02-1.4-1.27-3.12-2.62-4.98-2.25-.84,.17-1.43,.61-2.11,1.11-2.39,1.77-2.99,3.87-3.36,3.74Z" style="fill:#a7a8ad; stroke:#000; stroke-miterlimit:10; stroke-width:.86px;"/><path d="M54.56,68.31c.18,1.78,.53,3.55,1.04,5.26,.4,1.35,.91,2.69,1.71,3.85s1.93,2.13,3.28,2.55c.66,.2,1.35,.27,2.05,.27,3.03,0,5.91-1.24,8.64-2.55,4.29-2.06,8.6-4.42,11.6-8.11" style="fill:none; stroke:#000; stroke-miterlimit:10; stroke-width:.86px;"/><path d="M62.59,67.57c2.93-1.14,5.64-2.84,7.94-4.98" style="fill:none; stroke:#000; stroke-miterlimit:10; stroke-width:.86px;"/><path d="M80.5,72.1c1.67,1.2,3.46,2.23,5.33,3.07,.93,.42,2,.79,2.93,.37,.13-.06,.26-.14,.32-.26,.06-.12,.05-.27,.03-.41-.16-.82-.82-1.42-1.45-1.96-5.26-4.44-11.19-8.1-17.61-10.69,4.33-4.48,8.67-8.96,12.78-13.65,1.72-1.96,3.43-3.98,5.52-5.54s4.66-2.65,7.27-2.46" style="fill:none; stroke:#000; stroke-miterlimit:10; stroke-width:.86px;"/><path d="M88.84,75.53c4.75-3.91,9.21-8.17,13.34-12.73" style="fill:none; stroke:#000; stroke-miterlimit:10; stroke-width:.86px;"/><path d="M92.54,41.01c2.78-4.25,7.34-6.94,11.73-9.48,.74-.43,1.5-.86,2.35-.94s1.8,.29,2.12,1.07" style="fill:none; stroke:#000; stroke-miterlimit:10; stroke-width:.86px;"/><path d="M98.02,39.44c2.86-2.81,6.76-4.24,10.54-5.6" style="fill:none; stroke:#000; stroke-miterlimit:10; stroke-width:.86px;"/><path d="M106.11,30.36c-.64-1.32-1.3-2.81-.87-4.21,.36-1.16,1.39-1.99,1.81-3.13,.79-2.15-.86-4.44-.83-6.73,0-.25,.03-.52,.18-.73,.24-.35,.74-.44,1.14-.3s.71,.46,.96,.8c1.12,1.5,1.37,3.46,1.41,5.33,.07,3.83-.62,7.63-1.24,11.42-.2,1.2-.38,2.44-.08,3.61,.3,1.18,1.08,2.19,1.89,3.11,2.53,2.88,5.6,5.29,7.8,8.43-.94-1.62-1.29-3.51-1.5-5.37-.47-4.17-.31-8.4,.49-12.52,.27-1.43,.63-2.85,.66-4.31,.03-1.11-.12-2.21-.35-3.3-.55-2.62-1.59-5.21-3.46-7.13-1.87-1.92-4.66-3.06-7.27-2.48" style="fill:none; stroke:#000; stroke-miterlimit:10; stroke-width:.86px;"/><path d="M81.48,26.88c.06-1.25-.54-2.43-1.03-3.58-1.38-3.21-2.07-6.78-1.57-10.24s2.25-6.8,5.06-8.88c.95-.7,1.99-1.25,3.05-1.75,2.36-1.13,4.9-2.1,7.51-1.99,3.16,.14,6.09,1.88,8.2,4.23s3.49,5.27,4.57,8.23" style="fill:none; stroke:#000; stroke-miterlimit:10; stroke-width:.86px;"/><path d="M80.46,27.36c.26,2.94,1.47,5.85,3.59,7.91s5.2,3.18,8.11,2.69c.5-.08,1.07-.29,1.19-.77,.05-.19,.02-.4-.02-.59-.34-1.96-.82-3.89-1.43-5.78-1.05,1.03-2.89,.6-3.94-.42s-1.57-2.45-2.28-3.73c-.25-.46-.6-.95-1.12-1.02-.34-.05-.68,.1-1,.25-1.1,.51-2.21,1.02-3.11,1.48Z" style="fill:none; stroke:#000; stroke-miterlimit:10; stroke-width:.86px;"/><path d="M93.46,37.4c.46,.36,.78,.89,.86,1.47" style="fill:none; stroke:#000; stroke-miterlimit:10; stroke-width:.86px;"/><path d="M116.57,37.9c2.63,5.53,4.92,11.3,5.78,17.37,.78,5.49,.37,11.1,1.13,16.59,1.36,9.89,6.4,18.94,8.25,28.75,.55,2.91,.82,5.91,.32,8.83-1.1,6.45-5.88,11.8-11.49,15.17-5.61,3.37-12.04,5.06-18.37,6.7" style="fill:none; stroke:#000; stroke-miterlimit:10; stroke-width:.86px;"/><path d="M85.84,75.17c.94,4.31,1.76,9.31,2.2,14.9,.43,5.6,.39,10.68,.12,15.08" style="fill:none; stroke:#000; stroke-miterlimit:10; stroke-width:.86px;"/><path d="M84.82,25.64c2.11-2.25,4.07-4.63,5.88-7.12" style="fill:none; stroke:#000; stroke-miterlimit:10; stroke-width:.86px;"/><path d="M91.9,31.02c.81-2.02,1.74-4,2.76-5.92" style="fill:none; stroke:#000; stroke-miterlimit:10; stroke-width:.86px;"/><path d="M64.02,55.55c2.96-1.11,5.92-2.21,8.88-3.32,.38-.14,.83-.28,1.18-.07,.43,.26,.42,.92,.13,1.33-.3,.4-.79,.6-1.25,.79l-8.14,3.25c-.43-.59-.72-1.28-.82-2.01,.11-.08,.26-.09,.03,.02Z" style="fill:#fff; stroke:#000; stroke-miterlimit:10; stroke-width:.86px;"/><circle cx="15.2" cy="126.09" r="15.2" style="fill:#303030;"/><text transform="translate(5.76 125.01)" style="fill:#fff; font-family:Rubik-MediumItalic, Rubik; font-size:6.9px; font-style:italic; font-weight:500;"><tspan x="0" y="0">Bikini</tspan><tspan x="2.14" y="8.28">Line</tspan></text><path d="M121.58,36.93c1.39-.34,2.78-.68,4.18-1.01,5.77,23.13,11.53,46.26,17.3,69.39-1.46,.25-2.93,.49-4.39,.74" style="fill:none; stroke:#4620ff; stroke-miterlimit:10; stroke-width:2.87px;"/><path d="M54.16,77.2c-1.16,0-2.31,0-3.47,0,0-6.42,0-12.84,0-19.27,1.19,.03,2.39,.06,3.58,.09" style="fill:none; stroke:#4620ff; stroke-miterlimit:10; stroke-width:1.34px;"/></g></g></svg>