<?xml version="1.0" encoding="UTF-8"?><svg id="Layer_2" xmlns="http://www.w3.org/2000/svg" viewBox="0 0 195.03 222.9"><g id="Layer_2-2"><g><path d="M144.94,115.13c8.8,21.76,24.83,61.34,9.47,75.18-14.04,12.65-48.35-1.59-72.88-11.77-11.14-4.63-17.7-7.41-25.43-13.52-3.81-3.01-32.62-25.79-30.36-56.92,2.48-34.21,41.38-63.3,71.33-57.06,23.96,4.99,34.49,31.01,47.88,64.09Z" style="fill:#a7a8ad; opacity:.15;"/><g><path d="M29.8,20.33l5.1-7.5h-4.24l-3.18,5-3.16-5h-4.35l5.08,7.5-3.01,4.45h-5.06V12.82h-3.63v14.62l-3.22-4.7c1.84-.8,2.85-2.45,2.85-4.71,0-3.31-2.08-5.2-5.72-5.2H.78v15.36h3.63v-4.93h2.03l3.1,4.93h14.43l3.42-5.37,3.38,5.37h4.35l-5.32-7.86Zm-22.48-.5h-2.92v-3.58h2.92c1.4,0,2.02,.55,2.02,1.78s-.64,1.8-2.02,1.8Z" style="fill:#303030;"/><g><path d="M37.85,15.98c-.69,0-1.33,.16-1.91,.45l3.58,5.04-2.24,3.16c.19,.02,.38,.04,.57,.04,2.4,0,4.34-1.94,4.34-4.34s-1.94-4.34-4.34-4.34Z" style="fill:#a7a8ad;"/><path d="M35.33,16.78c-1.11,.79-1.83,2.08-1.83,3.54,0,1.94,1.27,3.59,3.03,4.14l2.12-3-3.32-4.68Z" style="fill:#a7a8ad;"/></g></g><text transform="translate(0 39.73)" style="fill:#303030; font-family:Barlow-SemiBold, Barlow; font-size:11.8px; font-weight:600;"><tspan x="0" y="0">Needl</tspan><tspan x="30.09" y="0" style="letter-spacing:0em;">e</tspan><tspan x="36.38" y="0">s</tspan></text><circle cx="44.32" cy="197.28" r="20.12" style="fill:#303030;"/><path d="M92.2,135.68c-.58,.78-.97,1.22-.97,1.22-1.27,1.42-3.51,3.88-7.23,5.45-2.03,.86-3.84,1.18-5.53,1.48,0,0-3.25,.55-6.48,.5-4.48-.06-13.13-2.3-23.12-7.73-1.25-.63-3.9-1.72-7.06-1.15-1.86,.34-3.19,1.12-4.09,1.66-2.66,1.59-3.08,2.9-4.99,4.58-5.18,4.55-12.57,4.1-14.09,3.98-1.36-.11-2.47-.35-3.18-.54" style="fill:none; stroke:#000; stroke-miterlimit:10; stroke-width:1.14px;"/><path d="M77.75,95.29c.9,.12,1.8,.29,2.68,.55,2.45,.72,4.16,1.6,5.59,2.38,2.5,1.38,5.89,3.25,8.39,6.84,0,0,3.87,5.54,3.21,15.6" style="fill:none; stroke:#000; stroke-miterlimit:10; stroke-width:1.14px;"/><path d="M14.69,107.12c2.34,.13,4.66,.19,6.98,.45,1.34,.15,2.72,.44,4.07,.52,2.36,.16,4.74,.41,7.1,.4,1.61,0,3.18,.21,4.78,.17,.99-.02,2.27-.01,2.62-1.13,.2-.63,.21-1.36,.22-2.01,0-.83-.15-1.44-.35-2.23-.36-1.41-.38-2.8-.13-4.24,.13-.76,.26-1.07,.76-1.64,.25-.28,.85-.92,1.66-1.38,2.29-1.3,6.45-1.18,7.28-1.73,.05-.03,.27-.19,.6-.27,.19-.04,.38-.05,.65-.03,.58,.04,.65,.25,1.1,.6,.33,.26,.63,.4,1.02,.23,.23-.1,.37-.33,.61-.44,.22-.11,.61-.19,.86-.25,1.02-.23,1.71,.54,2.63,.81,1.29,.38,2.03-.68,2.7-1.59,.67-.92,1.03-1.54,2.26-1.67,1.46-.16,3.22,.63,4.19,1.06,2.3,1.01,3.55,1.56,5.09,1.94,1.09,.27,2,.37,2.58,.42" style="fill:none; stroke:#000; stroke-miterlimit:10; stroke-width:1.14px;"/><path d="M81.53,126.98c10.39,7.8,17.76,14,22.89,18.55,1.39,1.23,7,5.4,14.94,8.74,3.15,1.32,6.99,2.28,9.79,.33,2.23-1.55,2.97-4.12,3.66-7.34,1.02-4.74,2.2-11.34,2.94-19.55" style="fill:none; stroke:#000; stroke-miterlimit:10; stroke-width:1.14px;"/><path d="M115.03,136.71c-.99-5.87-1.6-11.81-1.83-17.75" style="fill:none; stroke:#000; stroke-miterlimit:10; stroke-width:1.14px;"/><path d="M89.86,116.69c6.3,2.99,12.78,6.36,19.36,10.17,1.6,.93,3.17,1.86,4.72,2.8" style="fill:none; stroke:#000; stroke-miterlimit:10; stroke-width:1.14px;"/><path d="M113.28,78.38c-3.2,11.56-4.21,23.6-5.18,35.56-.13,1.64-.07,3.67,1.39,4.43,.48,.25,1.03,.3,1.57,.36,9.75,1.08,19.2,4.79,27.08,10.63,.49,.36,1.11,.76,1.67,.51,.35-.15,.55-.51,.73-.85,1.8-3.51,3.01-7.29,4.21-11.05,2.7-8.46,5.43-17.18,4.82-26.04" style="fill:none; stroke:#000; stroke-miterlimit:10; stroke-width:1.14px;"/><path d="M97.2,112.73c1.89-10.15,5.85-25.6,14.55-40.46,0,0,6.89-14.61,20.72-19.66,.59-.21,1.19-.41,1.82-.4,1.4,.02,2.62,1.08,3.24,2.34,.62,1.26,.76,2.69,.89,4.09-4.41,1.55-9.96,3.97-15.86,7.81-6.52,4.24-11.32,8.83-14.64,12.51" style="fill:none; stroke:#000; stroke-miterlimit:10; stroke-width:1.14px;"/><path d="M88.41,43.65c.85,5.56,3.68,10.82,7.99,14.44,4.3,3.61,10.06,5.51,15.65,4.95,.3-.03,.62-.07,.88-.24,.45-.29,.6-.86,.71-1.38,.75-3.71,.81-7.55,.2-11.28-.08-.51-.22-1.07-.65-1.35-.65-.41-1.46,.07-2.19,.32-2.35,.83-4.9-.95-6.14-3.11-1.24-2.17-1.64-4.71-2.7-6.97-.09-.19-.19-.39-.38-.49-.24-.14-.55-.07-.81,.01-4.33,1.25-8.55,2.9-12.55,5.09Z" style="fill:none; stroke:#000; stroke-miterlimit:10; stroke-width:1.14px;"/><path d="M102.2,39.07c3.06-4.72,6.44-9.24,10.11-13.51" style="fill:none; stroke:#000; stroke-miterlimit:10; stroke-width:1.14px;"/><path d="M112.71,48.57c1.76-4.44,3.91-8.73,6.42-12.79" style="fill:none; stroke:#000; stroke-miterlimit:10; stroke-width:1.14px;"/><path d="M114.03,61.84c1.04,1,1.74,2.36,1.93,3.8" style="fill:none; stroke:#000; stroke-miterlimit:10; stroke-width:1.14px;"/><path d="M89.48,43.16c-.76-5.67-2.86-11.09-3.8-16.74s-.55-11.94,3.09-16.36c1.61-1.96,3.74-3.41,5.85-4.83,1.27-.86,2.54-1.72,3.92-2.36,2.33-1.09,4.91-1.55,7.46-1.88,5.27-.68,10.9-.8,15.56,1.75,3.58,1.96,6.23,5.34,7.97,9.04,1.74,3.69,2.65,7.72,3.46,11.72" style="fill:none; stroke:#000; stroke-miterlimit:10; stroke-width:1.14px;"/><path d="M133.12,52.46c-2.29-3.29-1.86-7.71-1-11.62s2.09-7.96,1.1-11.84" style="fill:none; stroke:#000; stroke-miterlimit:10; stroke-width:1.14px;"/><path d="M145.11,70.77c-4.07-7.58-5.37-13.92-5.78-18.41-.45-4.96,0-9.83-2.48-16.38-1.15-3.05-2.54-5.4-3.54-6.92" style="fill:none; stroke:#000; stroke-miterlimit:10; stroke-width:1.14px;"/><path d="M132.72,23.07c1.49,.09,3.93,.43,6.5,1.82,3.53,1.89,5.31,4.66,6.06,5.81,4.6,7.12,3.99,18.27,3.83,22.51-.28,7.49-.09,17.93,1.99,31.02" style="fill:none; stroke:#000; stroke-miterlimit:10; stroke-width:1.14px;"/><path d="M138.41,58.64c3.84,6.32,9.09,15.89,13.71,28.23,1.51,4.05,2.1,6.09,6.61,21.81,7.91,27.6,11.84,41.45,12.45,43.04,3.41,8.87,7.34,17.69,8.54,27.12,1.2,9.43-.81,19.84-7.72,26.36-1.1,1.04-2.69,2.55-10.15,6.47-5.99,3.15-14.03,6.99-23.97,10.68" style="fill:none; stroke:#000; stroke-miterlimit:10; stroke-width:1.14px;"/><path d="M72.4,96.98c2.87-3.04,5.74-6.08,8.62-9.12,.37-.39,.83-.82,1.37-.77,.66,.06,1.04,.85,.92,1.5-.12,.65-.58,1.18-1.02,1.67l-7.78,8.61c-.86-.45-1.6-1.11-2.14-1.91,.08-.15,.25-.26,.05,0Z" style="fill:none; stroke:#000; stroke-miterlimit:10; stroke-width:1.14px;"/><path d="M110.25,149.61c.37,2.72,.66,5.57,.86,8.54,.6,8.94,.21,17.07-.65,24.18" style="fill:none; stroke:#000; stroke-miterlimit:10; stroke-width:1.14px;"/><path d="M58.9,103.6c.39-.66,1.12-.93,1.52-1.03-.18-.99-.08-1.81,.23-2.49,.42-.92,.93-.93,1.08-1.71,.19-1-.53-1.55-.16-2.48,.2-.5,.52-.63,.43-.83-.12-.27-.72-.22-2.4-.2-1.57,.02-1.62-.02-1.64-.06-.29-.58,3.57-4.47,7.07-3.82,1.75,.32,1.47,1.34,4.58,3.19,1.88,1.12,4.25,1.49,5.76,3.07,.81,.84,1.28,1.93,1.83,2.96,2.02,3.78,5.19,6.8,8.3,9.76,2.24,2.12,4.48,4.25,6.71,6.37-3.09,.06-5.98,1.85-7.85,4.31-1.87,2.46-2.82,5.51-3.26,8.57-6.46-6.36-12.89-12.76-19.29-19.19-.11-.11-1.51-1.17-2.45-3.06-.42-.84-1.13-2.26-.48-3.35Z" style="fill:#a7a8ad; stroke:#000; stroke-miterlimit:10; stroke-width:1.14px;"/><text transform="translate(29.28 196.41)" style="fill:#fff; font-family:Rubik-MediumItalic, Rubik; font-size:9.13px; font-style:italic; font-weight:500;"><tspan x="0" y="0" style="letter-spacing:0em;">F</tspan><tspan x="5.42" y="0">ace &amp;</tspan><tspan x="3.53" y="10.96">Head</tspan></text><path d="M155.1,56.92c1.83-.49,3.66-.99,5.49-1.48,10.59,38,21.18,75.99,31.77,113.99-1.94,.34-3.87,.69-5.81,1.03" style="fill:none; stroke:#4620ff; stroke-miterlimit:10; stroke-width:4.25px;"/><path d="M97.92,144.79c-.94,1.21-1.88,2.42-2.82,3.63-10.39-8.01-20.79-16.02-31.18-24.03,1.02-1.21,2.03-2.43,3.05-3.64" style="fill:none; stroke:#4620ff; stroke-miterlimit:10; stroke-width:2.2px;"/></g></g></svg>