<?xml version="1.0" encoding="UTF-8"?><svg id="Layer_2" xmlns="http://www.w3.org/2000/svg" viewBox="0 0 212.45 212.04"><g id="Layer_2-2"><g><path d="M62.18,86c2.27-.04,4.04,.32,5.21,.65,1.05,.29,1.92,.64,2.41,.84,0,0,1.65,.67,3.25,1.58,6.58,3.75,9.39,8.22,9.39,8.22,3.13,4.98,2.71,10.23,2.37,14.52-.21,2.62-1.48,9.83-5.49,15.23-1.68,2.26-3.58,3.82-3.72,3.94-.52,.42-2.17,1.72-4.6,2.83-4.68,2.13-9.03,2.08-12.18,2.01-1.31-.03-4.55-.07-8.71-1.2-5.19-1.41-6.18-3.09-14.73-6.64,0,0-3.44-1.43-7.16-1.16-.8,.06-1.76,.13-2.66,.68-.81,.5-1.49,1-1.49,1-1.82,2.27-3.71,3.74-5.06,4.64-.4,.26-2.17,1.43-4.77,2.41-2.17,.82-4.03,1.19-5.26,1.37-1.15,.17-2.49,.36-4.25,.24-1.32-.09-2.42-.33-3.22-.54" style="fill:none; stroke:#000; stroke-miterlimit:10; stroke-width:1.14px;"/><path d="M.77,98.09c2.37,.14,4.73,.2,7.07,.46,1.36,.15,2.75,.44,4.12,.53,2.39,.16,4.81,.41,7.2,.4,1.63,0,3.22,.21,4.85,.17,1.01-.02,2.3-.01,2.66-1.14,.2-.63,.22-1.38,.22-2.03,0-.84-.16-1.46-.36-2.26-.36-1.43-.38-2.84-.14-4.3,.13-.77,.26-1.09,.77-1.67,.25-.28,.87-.93,1.68-1.4,2.32-1.32,6.54-1.2,7.37-1.76,.05-.03,.27-.19,.61-.27,.19-.04,.39-.05,.66-.03,.59,.04,.66,.25,1.11,.61,.33,.27,.64,.41,1.03,.23,.23-.1,.38-.34,.62-.45,.23-.11,.62-.2,.87-.25,1.03-.23,1.73,.55,2.67,.82,1.3,.38,2.06-.68,2.74-1.61,.68-.94,1.04-1.56,2.29-1.69,1.48-.16,3.27,.64,4.25,1.07,2.34,1.03,3.6,1.58,5.16,1.96,1.1,.27,2.03,.38,2.62,.43" style="fill:none; stroke:#000; stroke-miterlimit:10; stroke-width:1.14px;"/><path d="M111.18,40.67c-3.27-.39-8.15-.94-14.1-1.42-7.63-.62-11.44-.93-13.15-.6-4.57,.91-9.65,6.28-19.8,17.01-8.31,8.79-8.17,10.23-11.84,14.63-1.09,1.31-1.53,2.84-1.53,4.58,.22,2.62,2.18,4.8,4.36,6.33,2.84,1.75,5.67,2.62,8.95,2.18,.65-.22,1.09-.87,1.53-1.31,2.95-3.73,5.8-6.58,8.08-8.62,0,0,4.46-4.01,10.78-7.69,.94-.55,2.06-1.17,3.63-1.61,2.95-.82,5.42-.44,6.97-.19,4.29,.71,10.17,1.68,17.29,3.05" style="fill:none; stroke:#000; stroke-miterlimit:10; stroke-width:1.14px;"/><path d="M139.94,35.3c2.49,.08,4.47,.4,5.73,.65,11.59,2.31,18.52,9.9,20.24,11.91,.96,1.13,1.66,2.07,2.12,2.73,11.46,16.2,16.78,42.3,27.34,60.81,1.17,2.05,2.87,5.11,6.26,11.22,3.74,6.73,4.97,9.34,6.67,12.95,1.48,3.15,2.9,6.38,3.37,9.83,.91,6.69-1.56,12.01-4.44,18.21-1.86,4.01-5.02,9.73-10.32,15.76" style="fill:none; stroke:#000; stroke-miterlimit:10; stroke-width:1.14px;"/><path d="M113.81,70.41c-1.98,6.53-1.67,11.82-1.24,14.84,1.31,9.33,6.35,15.81,8.78,18.87,1.97,2.48,2.07,2.06,8.18,8.71,4.02,4.39,7.32,8.21,8.29,9.38,3.12,3.76,8.36,11.59,12.28,27.34" style="fill:none; stroke:#000; stroke-miterlimit:10; stroke-width:1.14px;"/><path d="M117.67,92.62c.3-.51,.52-1.16,.74-1.6,.87-1.75,2.18-3.05,2.62-5.02-.65-1.31-2.4-1.53-3.43-2.59,.99-.59,.75,.54,0,0,1.25-.9,3.21-.9,3.86-2.87-1.31-2.62-1.75-5.67-1.88-8.53" style="fill:none; stroke:#000; stroke-miterlimit:10; stroke-width:1.14px;"/><path d="M149.5,135.87c2.25-1.19,4.57-2.5,6.94-3.94,4.81-2.93,9.09-5.94,12.85-8.89,.6,.99,1.2,1.99,1.79,2.99,.56,.94,1.12,1.88,1.68,2.81-4.06,2.49-8.12,4.98-12.17,7.47" style="fill:none; stroke:#000; stroke-miterlimit:10; stroke-width:1.14px;"/><path d="M172.16,129.61c3.21,7.36,5.47,12.66,5.76,13.34,.12,.27,.38,.92,.12,1.52-.17,.4-.5,.61-.65,.7-.85,.53-3.82,2.27-7.89,4.58" style="fill:none; stroke:#000; stroke-miterlimit:10; stroke-width:1.14px;"/><path d="M92.77,39.19c-.51-2.6-1.03-5.21-1.54-7.81-.38-1.94-.77-3.88-.96-5.85-.35-3.47-.1-7.03,1.04-10.33,1.79-5.19,5.79-9.52,10.68-12C106.88,.7,112.61,.03,118.02,.99c2.08,.37,3.65,1.05,4.35,1.35,10.63,4.7,12.59,24.66,12.7,25.99" style="fill:none; stroke:#000; stroke-miterlimit:10; stroke-width:1.14px;"/><path d="M134.96,27.87c1.92,.22,4.14,.66,6.51,1.51,7.05,2.52,11.45,7.2,13.63,9.92" style="fill:none; stroke:#000; stroke-miterlimit:10; stroke-width:1.14px;"/><path d="M116.31,40.39c2-.24,4.98-.72,8.45-1.8,4.19-1.31,5.96-2.51,7.95-3.16,3.32-1.08,8.57-1.06,16.86,4.26" style="fill:none; stroke:#000; stroke-miterlimit:10; stroke-width:1.14px;"/><path d="M110.97,40.69c.75,1.12,1.57,2.49,2.38,4.09,0,0,1.06,2.1,1.87,4.35,1.16,3.2,2.35,10.08,2.11,19.04" style="fill:none; stroke:#000; stroke-miterlimit:10; stroke-width:1.14px;"/><path d="M117.35,67.3c.2,1.55-.5,2.94-1.62,3.42-1.11,.47-2.2-.11-2.41-.22-1.2-.64-1.91-2.04-1.89-3.6,.88,.15,1.85,.27,2.91,.35,1.09,.08,2.09,.09,3.01,.06Z" style="fill:none; stroke:#000; stroke-miterlimit:10; stroke-width:1.14px;"/><path d="M115.07,70.89c.45-.12,1.07-.26,1.82-.39,.19-.03,2.19-.36,4.4-.3,3.55,.11,10.04,1.31,14.51,1.99,6.7,1.01,8.59,.79,10.42,0,1.99-.87,3.36-2.18,4.21-3.19" style="fill:none; stroke:#000; stroke-miterlimit:10; stroke-width:1.14px;"/><path d="M111.12,40.76c2.05-.14,3.79-.58,5.76-.36,.65,.22,.87,1.09,1.09,1.75,2.62,7.42,5.02,14.62,5.31,22.53" style="fill:none; stroke:#000; stroke-miterlimit:10; stroke-width:1.14px;"/><path d="M40.06,96.34c1,.88,2.53,1.95,4.55,2.15,.96,.1,1.27-.15,2.79-.2,2.09-.07,4.3,.69,6.27,.11,2.31-.67,3.55-2.93,4.51-5.03,1.06-2.33,1.32-2.92,2.21-4.62,3.09-5.93,8.7-7.89,8.12-9.33-.19-.47-.86-.41-2.37-.74,0,0-3.23-.72-6.34-2.72-1.61-1.03-4.42-2.84-6.02-6.19-.44-.93-.49-1.35-.9-1.46-1.69-.47-2.75,6.24-8.55,10.44-.7,.51-3.5,2.45-7.03,5.2-.98,.76-2.15,1.71-2.12,2.95,.03,1.29,1.34,2.19,1.83,2.5" style="fill:#a7a8ad; stroke:#000; stroke-miterlimit:10; stroke-width:1.07px;"/><path d="M37.94,89.69c-.26-.05-.71-.13-1.26-.22-2.18-.36-4.34-.9-6.54-1.13-.62-.06-1.22-.19-1.76-.62-.49-.39-.75-1.16-.38-1.67,.4-.55,1.22-.51,1.89-.42,3.28,.47,6.56,.94,9.83,1.42" style="fill:#fff; stroke:#000; stroke-miterlimit:10; stroke-width:1.03px;"/><path d="M163.04,94.98c5.75,20.23,8.63,30.34,4.16,41.15-12.1,29.24-63.72,30.43-74.08,30.67-12.15,.28-61.41,1.42-71.71-21.88C4.99,107.8,91.56,17.72,130.12,33.17c17.31,6.94,25.39,35.33,32.92,61.81Z" style="fill:#a7a8ad; opacity:.15;"/><path d="M40.87,96.23c-.36,.14-2.46,.9-4.36-.11-.11-.06-1.41-.78-1.89-1.91-.35-.82-.15-1.44,.04-2.05,.18-.57,.48-1.06,.97-1.59,.98-1.05,2.03-1.4,2.57-1.83,1.16-.93,1.68-1.93,1.81-2.17,.38-.71,.56-1.37,.66-1.82" style="fill:#a7a8ad; stroke:#000; stroke-miterlimit:10; stroke-width:.89px;"/><text transform="translate(0 20.19)" style="fill:#303030; font-family:Barlow-SemiBold, Barlow; font-size:11.8px; font-weight:600;"><tspan x="0" y="0">St</tspan><tspan x="11.39" y="0" style="letter-spacing:0em;">r</tspan><tspan x="15.77" y="0">aight</tspan><tspan x=".03" y="14.17">Needl</tspan><tspan x="30.12" y="14.17" style="letter-spacing:0em;">e</tspan><tspan x="36.41" y="14.17">s</tspan></text><circle cx="24.55" cy="191.91" r="20.12" style="fill:#303030;"/><text transform="translate(9.51 191.04)" style="fill:#fff; font-family:Rubik-MediumItalic, Rubik; font-size:9.13px; font-style:italic; font-weight:500;"><tspan x="0" y="0" style="letter-spacing:0em;">F</tspan><tspan x="5.42" y="0">ace &amp;</tspan><tspan x="3.53" y="10.96">Head</tspan></text><path d="M23.57,90.83l-8.95-.34,8.38-3.18-8.04-3.95,8.95,.5-5.74-6.88,7.97,4.09-2.44-8.62,5.62,6.98,1.28-8.87,2.29,8.66,4.77-7.58-1.43,8.84" style="fill:none; stroke:#ed1c24; stroke-miterlimit:10;"/><polyline points="73.01 41.05 64.46 38.35 73.38 37.49 66.67 31.56 75.17 34.4 71.45 26.25 78.06 32.3 77.98 23.34 81.55 31.56 85.13 23.34 85.05 32.3 91.65 26.25 87.94 34.4" style="fill:none; stroke:#ed1c24; stroke-miterlimit:10;"/><polyline points="149.57 63.23 153.15 55.01 153.07 63.97 159.67 57.92 155.96 66.07 164.45 63.23 157.74 69.17 166.66 70.03 158.12 72.72 165.92 77.13 157.01 76.12 162.34 83.32 154.62 78.77 156.56 87.52 151.36 80.23 149.57 89.01 147.79 80.23 142.58 87.52 144.52 78.77 136.8 83.32 142.13 76.12" style="fill:none; stroke:#ed1c24; stroke-miterlimit:10;"/><path d="M140.88,23.02c1.37-1.31,2.74-2.63,4.1-3.94,6.38,2.54,16.98,7.7,27.1,17.87,10.94,10.99,16.12,22.61,18.51,29.21l-4.44,3.86" style="fill:none; stroke:#ed1c24; stroke-miterlimit:10; stroke-width:3.16px;"/></g></g></svg>